FuturaRenner-Light.ufo
<glyph name="exclam" format="1">
  <advance width="170"/>
  <unicode hex="0021"/>
  <outline>
    <contour>
      <point x="107" y="701" type="line"/>
      <point x="102" y="714"/>
      <point x="76" y="715"/>
      <point x="62" y="709" type="curve"/>
      <point x="54" y="691"/>
      <point x="58" y="670"/>
      <point x="58" y="651" type="curve"/>
      <point x="59" y="629"/>
      <point x="57" y="608"/>
      <point x="57" y="586" type="curve" smooth="yes"/>
      <point x="57" y="575"/>
      <point x="60" y="563"/>
      <point x="60" y="551" type="curve" smooth="yes"/>
      <point x="60" y="532"/>
      <point x="59" y="513"/>
      <point x="58" y="493" type="curve"/>
      <point x="58" y="483"/>
      <point x="60" y="473"/>
      <point x="60" y="463" type="curve" smooth="yes"/>
      <point x="60" y="456"/>
      <point x="58" y="448"/>
      <point x="58" y="441" type="curve"/>
      <point x="62" y="391" type="line"/>
      <point x="62" y="378"/>
      <point x="59" y="366"/>
      <point x="63" y="354" type="curve"/>
      <point x="59" y="343"/>
      <point x="59" y="323"/>
      <point x="60" y="307" type="curve" smooth="yes"/>
      <point x="63" y="275"/>
      <point x="66" y="228"/>
      <point x="58" y="184" type="curve"/>
      <point x="54" y="169"/>
      <point x="58" y="154"/>
      <point x="68" y="148" type="curve"/>
      <point x="78" y="147"/>
      <point x="84" y="150"/>
      <point x="90" y="153" type="curve"/>
      <point x="93" y="159"/>
      <point x="104" y="156"/>
      <point x="104" y="165" type="curve" smooth="yes"/>
      <point x="104" y="187"/>
      <point x="101" y="208"/>
      <point x="101" y="230" type="curve" smooth="yes"/>
      <point x="101" y="240"/>
      <point x="104" y="251"/>
      <point x="104" y="261" type="curve"/>
      <point x="105" y="286"/>
      <point x="105" y="309"/>
      <point x="104" y="329" type="curve"/>
      <point x="104" y="340"/>
      <point x="103" y="350"/>
      <point x="103" y="361" type="curve"/>
      <point x="101" y="406"/>
      <point x="103" y="451"/>
      <point x="104" y="498" type="curve"/>
      <point x="100" y="511"/>
      <point x="103" y="525"/>
      <point x="103" y="537" type="curve"/>
      <point x="102" y="588"/>
      <point x="99" y="641"/>
      <point x="107" y="687" type="curve"/>
    </contour>
    <contour>
      <point x="110" y="90" type="line"/>
      <point x="102" y="103"/>
      <point x="57" y="99"/>
      <point x="55" y="75" type="curve"/>
      <point x="49" y="67"/>
      <point x="45" y="55"/>
      <point x="47" y="42" type="curve"/>
      <point x="52" y="39"/>
      <point x="55" y="30"/>
      <point x="62" y="27" type="curve"/>
      <point x="67" y="23"/>
      <point x="83" y="20"/>
      <point x="91" y="20" type="curve"/>
      <point x="103" y="21"/>
      <point x="111" y="28"/>
      <point x="118" y="33" type="curve"/>
      <point x="118" y="44"/>
      <point x="121" y="53"/>
      <point x="123" y="63" type="curve"/>
      <point x="120" y="69"/>
      <point x="113" y="71"/>
      <point x="110" y="79" type="curve"/>
    </contour>
  </outline>
</glyph>
<glyph name="numbersign" format="1">
  <advance width="624"/>
  <unicode hex="0023"/>
  <outline>
    <contour>
      <point x="449" y="363" type="line"/>
      <point x="453" y="376"/>
      <point x="459" y="389"/>
      <point x="464" y="404" type="curve"/>
      <point x="463" y="411"/>
      <point x="469" y="412"/>
      <point x="471" y="417" type="curve"/>
      <point x="470" y="433"/>
      <point x="475" y="442"/>
      <point x="480" y="461" type="curve"/>
      <point x="490" y="477"/>
      <point x="475" y="490"/>
      <point x="461" y="490" type="curve" smooth="yes"/>
      <point x="445" y="490"/>
      <point x="459" y="487"/>
      <point x="438" y="484" type="curve"/>
      <point x="429" y="475"/>
      <point x="430" y="468"/>
      <point x="428" y="459" type="curve"/>
      <point x="429" y="447"/>
      <point x="422" y="438"/>
      <point x="420" y="426" type="curve" smooth="yes"/>
      <point x="417" y="410"/>
      <point x="406" y="377"/>
      <point x="399" y="361" type="curve"/>
      <point x="374" y="361"/>
      <point x="331" y="362"/>
      <point x="319" y="362" type="curve" smooth="yes"/>
      <point x="316" y="362"/>
      <point x="278" y="360"/>
      <point x="233" y="359" type="curve"/>
      <point x="237" y="373"/>
      <point x="243" y="387"/>
      <point x="250" y="404" type="curve"/>
      <point x="249" y="411"/>
      <point x="255" y="412"/>
      <point x="254" y="417" type="curve"/>
      <point x="254" y="433"/>
      <point x="262" y="442"/>
      <point x="267" y="461" type="curve"/>
      <point x="273" y="469"/>
      <point x="277" y="483"/>
      <point x="268" y="489" type="curve"/>
      <point x="258" y="491"/>
      <point x="243" y="490"/>
      <point x="231" y="490" type="curve"/>
      <point x="231" y="489"/>
      <point x="230" y="489"/>
      <point x="224" y="488" type="curve"/>
      <point x="213" y="479"/>
      <point x="217" y="468"/>
      <point x="216" y="459" type="curve"/>
      <point x="216" y="447"/>
      <point x="212" y="438"/>
      <point x="206" y="426" type="curve"/>
      <point x="204" y="410"/>
      <point x="194" y="374"/>
      <point x="185" y="359" type="curve"/>
      <point x="185" y="358"/>
      <point x="184" y="358"/>
      <point x="184" y="358" type="curve" smooth="yes"/>
      <point x="134" y="357"/>
      <point x="87" y="357"/>
      <point x="78" y="361" type="curve"/>
      <point x="68" y="362"/>
      <point x="55" y="361"/>
      <point x="48" y="353" type="curve"/>
      <point x="45" y="351"/>
      <point x="43" y="349"/>
      <point x="43" y="347" type="curve"/>
      <point x="36" y="338"/>
      <point x="36" y="325"/>
      <point x="48" y="325" type="curve"/>
      <point x="53" y="318"/>
      <point x="56" y="319"/>
      <point x="67" y="317" type="curve"/>
      <point x="82" y="315"/>
      <point x="136" y="315"/>
      <point x="176" y="315" type="curve"/>
      <point x="172" y="300"/>
      <point x="167" y="281"/>
      <point x="162" y="277" type="curve"/>
      <point x="162" y="269" type="line"/>
      <point x="164" y="258"/>
      <point x="155" y="241"/>
      <point x="152" y="234" type="curve"/>
      <point x="145" y="221"/>
      <point x="149" y="213"/>
      <point x="144" y="200" type="curve"/>
      <point x="142" y="189"/>
      <point x="138" y="180"/>
      <point x="134" y="170" type="curve"/>
      <point x="118" y="168" type="line" smooth="yes"/>
      <point x="100" y="166"/>
      <point x="71" y="169"/>
      <point x="60" y="168" type="curve"/>
      <point x="52" y="166"/>
      <point x="43" y="168"/>
      <point x="41" y="163" type="curve"/>
      <point x="30" y="160"/>
      <point x="25" y="151"/>
      <point x="26" y="139" type="curve"/>
      <point x="26" y="140"/>
      <point x="27" y="139"/>
      <point x="28" y="135" type="curve"/>
      <point x="31" y="120"/>
      <point x="49" y="125"/>
      <point x="70" y="130" type="curve" smooth="yes"/>
      <point x="78" y="132"/>
      <point x="108" y="129"/>
      <point x="119" y="130" type="curve"/>
      <point x="113" y="106"/>
      <point x="99" y="62"/>
      <point x="96" y="45" type="curve"/>
      <point x="92" y="37"/>
      <point x="88" y="30"/>
      <point x="89" y="24" type="curve"/>
      <point x="83" y="18"/>
      <point x="83" y="14"/>
      <point x="79" y="7" type="curve"/>
      <point x="86" y="-3"/>
      <point x="83" y="-4"/>
      <point x="103" y="-4" type="curve"/>
      <point x="124" y="-3"/>
      <point x="125" y="-4"/>
      <point x="135" y="6" type="curve" smooth="yes"/>
      <point x="140" y="11"/>
      <point x="137" y="15"/>
      <point x="136" y="19" type="curve"/>
      <point x="141" y="24"/>
      <point x="138" y="28"/>
      <point x="139" y="32" type="curve"/>
      <point x="145" y="52"/>
      <point x="146" y="50"/>
      <point x="145" y="50" type="curve"/>
      <point x="149" y="67" type="line"/>
      <point x="151" y="73"/>
      <point x="154" y="74"/>
      <point x="156" y="79" type="curve"/>
      <point x="154" y="88"/>
      <point x="156" y="108"/>
      <point x="160" y="119" type="curve"/>
      <point x="161" y="119"/>
      <point x="160" y="119"/>
      <point x="160" y="120" type="curve"/>
      <point x="162" y="123"/>
      <point x="166" y="129"/>
      <point x="168" y="134" type="curve"/>
      <point x="187" y="134"/>
      <point x="237" y="132"/>
      <point x="251" y="132" type="curve" smooth="yes"/>
      <point x="254" y="132"/>
      <point x="289" y="133"/>
      <point x="332" y="135" type="curve"/>
      <point x="331" y="134"/>
      <point x="331" y="133"/>
      <point x="331" y="132" type="curve"/>
      <point x="327" y="109"/>
      <point x="309" y="63"/>
      <point x="305" y="45" type="curve"/>
      <point x="305" y="37"/>
      <point x="299" y="30"/>
      <point x="301" y="24" type="curve"/>
      <point x="293" y="18"/>
      <point x="292" y="14"/>
      <point x="291" y="7" type="curve"/>
      <point x="296" y="-3"/>
      <point x="312" y="3"/>
      <point x="333" y="3" type="curve" smooth="yes"/>
      <point x="339" y="3"/>
      <point x="342" y="2"/>
      <point x="343" y="2" type="curve"/>
      <point x="346" y="6" type="line"/>
      <point x="354" y="11"/>
      <point x="349" y="15"/>
      <point x="350" y="19" type="curve"/>
      <point x="354" y="24"/>
      <point x="353" y="28"/>
      <point x="353" y="32" type="curve"/>
      <point x="364" y="70"/>
      <point x="356" y="30"/>
      <point x="363" y="67" type="curve"/>
      <point x="365" y="73"/>
      <point x="369" y="74"/>
      <point x="372" y="79" type="curve"/>
      <point x="370" y="88"/>
      <point x="371" y="108"/>
      <point x="374" y="119" type="curve"/>
      <point x="375" y="119"/>
      <point x="374" y="119"/>
      <point x="374" y="120" type="curve"/>
      <point x="379" y="124"/>
      <point x="382" y="130"/>
      <point x="383" y="136" type="curve"/>
      <point x="429" y="137"/>
      <point x="471" y="137"/>
      <point x="479" y="134" type="curve"/>
      <point x="488" y="131"/>
      <point x="502" y="134"/>
      <point x="509" y="141" type="curve"/>
      <point x="512" y="143"/>
      <point x="513" y="145"/>
      <point x="512" y="147" type="curve"/>
      <point x="519" y="158"/>
      <point x="528" y="158"/>
      <point x="516" y="158" type="curve"/>
      <point x="511" y="163"/>
      <point x="508" y="163"/>
      <point x="498" y="166" type="curve"/>
      <point x="484" y="167"/>
      <point x="437" y="167"/>
      <point x="399" y="167" type="curve"/>
      <point x="399" y="170" type="line" smooth="yes"/>
      <point x="399" y="175"/>
      <point x="403" y="196"/>
      <point x="406" y="200" type="curve"/>
      <point x="411" y="213"/>
      <point x="411" y="221"/>
      <point x="412" y="231" type="curve"/>
      <point x="415" y="241"/>
      <point x="418" y="258"/>
      <point x="426" y="268" type="curve"/>
      <point x="426" y="268"/>
      <point x="428" y="310"/>
      <point x="449" y="313" type="curve"/>
      <point x="448" y="313" type="line"/>
      <point x="468" y="315" type="line" smooth="yes"/>
      <point x="485" y="317"/>
      <point x="517" y="314"/>
      <point x="528" y="315" type="curve" smooth="yes"/>
      <point x="537" y="316"/>
      <point x="544" y="315"/>
      <point x="548" y="320" type="curve"/>
      <point x="555" y="328"/>
      <point x="565" y="328"/>
      <point x="563" y="339" type="curve"/>
      <point x="561" y="346"/>
      <point x="560" y="344"/>
      <point x="557" y="355" type="curve"/>
      <point x="554" y="368"/>
      <point x="534" y="368"/>
      <point x="508" y="363" type="curve" smooth="yes"/>
      <point x="502" y="362"/>
      <point x="465" y="364"/>
      <point x="454" y="363" type="curve"/>
    </contour>
    <contour>
      <point x="375" y="269" type="line"/>
      <point x="374" y="258"/>
      <point x="364" y="241"/>
      <point x="365" y="234" type="curve"/>
      <point x="358" y="221"/>
      <point x="365" y="215"/>
      <point x="362" y="203" type="curve"/>
      <point x="358" y="192"/>
      <point x="352" y="180"/>
      <point x="346" y="168" type="curve"/>
      <point x="340" y="168"/>
      <point x="332" y="169"/>
      <point x="327" y="169" type="curve" smooth="yes"/>
      <point x="317" y="169"/>
      <point x="257" y="168"/>
      <point x="246" y="166" type="curve"/>
      <point x="223" y="165"/>
      <point x="204" y="168"/>
      <point x="183" y="170" type="curve"/>
      <point x="183" y="175"/>
      <point x="189" y="196"/>
      <point x="193" y="200" type="curve"/>
      <point x="195" y="213"/>
      <point x="195" y="221"/>
      <point x="198" y="231" type="curve"/>
      <point x="202" y="241"/>
      <point x="202" y="258"/>
      <point x="211" y="268" type="curve"/>
      <point x="211" y="268"/>
      <point x="225" y="309"/>
      <point x="220" y="311" type="curve"/>
      <point x="219" y="311"/>
      <point x="221" y="313"/>
      <point x="222" y="315" type="curve"/>
      <point x="229" y="315"/>
      <point x="240" y="314"/>
      <point x="248" y="314" type="curve" smooth="yes"/>
      <point x="260" y="314"/>
      <point x="324" y="313"/>
      <point x="334" y="315" type="curve"/>
      <point x="356" y="315"/>
      <point x="368" y="313"/>
      <point x="387" y="312" type="curve"/>
      <point x="383" y="297"/>
      <point x="378" y="281"/>
      <point x="374" y="277" type="curve"/>
    </contour>
  </outline>
</glyph>
<glyph name="dollar" format="1">
  <advance width="499"/>
  <unicode hex="0024"/>
  <outline>
    <contour>
      <point x="206" y="-11" type="line"/>
      <point x="205" y="-30"/>
      <point x="205" y="-49"/>
      <point x="209" y="-65" type="curve"/>
      <point x="214" y="-71"/>
      <point x="217" y="-67"/>
      <point x="226" y="-67" type="curve"/>
      <point x="235" y="-66"/>
      <point x="245" y="-68"/>
      <point x="251" y="-61" type="curve"/>
      <point x="255" y="-49"/>
      <point x="252" y="-23"/>
      <point x="253" y="-5" type="curve"/>
      <point x="251" y="2" type="line"/>
      <point x="254" y="2"/>
      <point x="256" y="3"/>
      <point x="257" y="4" type="curve"/>
      <point x="260" y="4"/>
      <point x="260" y="2"/>
      <point x="264" y="2" type="curve"/>
      <point x="273" y="3"/>
      <point x="281" y="7"/>
      <point x="289" y="7" type="curve"/>
      <point x="299" y="12"/>
      <point x="310" y="17"/>
      <point x="322" y="21" type="curve"/>
      <point x="324" y="26"/>
      <point x="333" y="26"/>
      <point x="336" y="30" type="curve"/>
      <point x="343" y="32"/>
      <point x="345" y="38"/>
      <point x="353" y="36" type="curve"/>
      <point x="364" y="50"/>
      <point x="375" y="63"/>
      <point x="390" y="73" type="curve"/>
      <point x="394" y="82"/>
      <point x="399" y="91"/>
      <point x="406" y="99" type="curve"/>
      <point x="411" y="108"/>
      <point x="413" y="120"/>
      <point x="421" y="126" type="curve"/>
      <point x="423" y="138"/>
      <point x="429" y="149"/>
      <point x="431" y="161" type="curve"/>
      <point x="434" y="173"/>
      <point x="436" y="189"/>
      <point x="436" y="202" type="curve"/>
      <point x="431" y="206"/>
      <point x="434" y="219"/>
      <point x="431" y="225" type="curve"/>
      <point x="429" y="233"/>
      <point x="427" y="240"/>
      <point x="428" y="251" type="curve"/>
      <point x="414" y="288" type="line"/>
      <point x="400" y="306"/>
      <point x="383" y="322"/>
      <point x="367" y="337" type="curve"/>
      <point x="339" y="348"/>
      <point x="328" y="374"/>
      <point x="292" y="374" type="curve"/>
      <point x="287" y="379"/>
      <point x="281" y="384"/>
      <point x="275" y="388" type="curve"/>
      <point x="266" y="390"/>
      <point x="257" y="393"/>
      <point x="249" y="397" type="curve"/>
      <point x="249" y="402" type="line" smooth="yes"/>
      <point x="249" y="409"/>
      <point x="251" y="413"/>
      <point x="252" y="420" type="curve"/>
      <point x="249" y="482"/>
      <point x="249" y="552"/>
      <point x="249" y="621" type="curve" smooth="yes"/>
      <point x="249" y="630"/>
      <point x="251" y="642"/>
      <point x="251" y="651" type="curve" smooth="yes"/>
      <point x="251" y="656" type="line"/>
      <point x="261" y="654"/>
      <point x="272" y="650"/>
      <point x="282" y="648" type="curve"/>
      <point x="295" y="640"/>
      <point x="307" y="631"/>
      <point x="321" y="623" type="curve"/>
      <point x="326" y="613"/>
      <point x="337" y="609"/>
      <point x="340" y="598" type="curve"/>
      <point x="350" y="593"/>
      <point x="352" y="580"/>
      <point x="364" y="575" type="curve"/>
      <point x="371" y="577"/>
      <point x="376" y="581"/>
      <point x="381" y="585" type="curve"/>
      <point x="384" y="591"/>
      <point x="392" y="592"/>
      <point x="391" y="602" type="curve"/>
      <point x="391" y="613"/>
      <point x="385" y="617"/>
      <point x="381" y="623" type="curve"/>
      <point x="378" y="630"/>
      <point x="374" y="636"/>
      <point x="370" y="643" type="curve"/>
      <point x="356" y="654"/>
      <point x="342" y="666"/>
      <point x="329" y="678" type="curve"/>
      <point x="319" y="683"/>
      <point x="308" y="688"/>
      <point x="301" y="696" type="curve"/>
      <point x="288" y="696"/>
      <point x="280" y="701"/>
      <point x="269" y="703" type="curve"/>
      <point x="262" y="703"/>
      <point x="256" y="704"/>
      <point x="249" y="704" type="curve"/>
      <point x="249" y="714" type="line" smooth="yes"/>
      <point x="249" y="723"/>
      <point x="249" y="731"/>
      <point x="247" y="736" type="curve"/>
      <point x="243" y="744"/>
      <point x="236" y="743"/>
      <point x="228" y="744" type="curve"/>
      <point x="217" y="744"/>
      <point x="210" y="746"/>
      <point x="205" y="739" type="curve"/>
      <point x="200" y="731"/>
      <point x="201" y="715"/>
      <point x="201" y="702" type="curve"/>
      <point x="194" y="702" type="line"/>
      <point x="186" y="697"/>
      <point x="175" y="696"/>
      <point x="165" y="692" type="curve"/>
      <point x="156" y="688"/>
      <point x="148" y="683"/>
      <point x="138" y="680" type="curve"/>
      <point x="129" y="673"/>
      <point x="123" y="665"/>
      <point x="112" y="661" type="curve"/>
      <point x="102" y="647"/>
      <point x="88" y="636"/>
      <point x="77" y="623" type="curve"/>
      <point x="68" y="603"/>
      <point x="62" y="581"/>
      <point x="55" y="559" type="curve"/>
      <point x="58" y="543"/>
      <point x="56" y="522"/>
      <point x="56" y="504" type="curve"/>
      <point x="58" y="499"/>
      <point x="60" y="495"/>
      <point x="60" y="490" type="curve"/>
      <point x="70" y="472"/>
      <point x="73" y="448"/>
      <point x="86" y="435" type="curve"/>
      <point x="89" y="426"/>
      <point x="100" y="424"/>
      <point x="103" y="415" type="curve"/>
      <point x="107" y="413"/>
      <point x="108" y="407"/>
      <point x="114" y="407" type="curve"/>
      <point x="117" y="403"/>
      <point x="120" y="399"/>
      <point x="125" y="398" type="curve"/>
      <point x="129" y="395"/>
      <point x="134" y="393"/>
      <point x="138" y="391" type="curve"/>
      <point x="143" y="389"/>
      <point x="146" y="386"/>
      <point x="151" y="383" type="curve"/>
      <point x="153" y="382"/>
      <point x="155" y="383"/>
      <point x="158" y="382" type="curve" smooth="yes"/>
      <point x="161" y="381"/>
      <point x="163" y="378"/>
      <point x="165" y="377" type="curve"/>
      <point x="170" y="375"/>
      <point x="175" y="375"/>
      <point x="181" y="372" type="curve"/>
      <point x="185" y="371"/>
      <point x="189" y="368"/>
      <point x="193" y="366" type="curve" smooth="yes"/>
      <point x="197" y="364"/>
      <point x="200" y="362"/>
      <point x="204" y="361" type="curve"/>
      <point x="204" y="349"/>
      <point x="205" y="338"/>
      <point x="206" y="328" type="curve"/>
      <point x="204" y="297"/>
      <point x="205" y="267"/>
      <point x="206" y="235" type="curve" smooth="yes"/>
      <point x="206" y="221"/>
      <point x="207" y="217"/>
      <point x="205" y="205" type="curve"/>
      <point x="207" y="200"/>
      <point x="207" y="191"/>
      <point x="207" y="181" type="curve"/>
      <point x="205" y="151"/>
      <point x="208" y="123"/>
      <point x="208" y="96" type="curve" smooth="yes"/>
      <point x="208" y="80"/>
      <point x="207" y="64"/>
      <point x="207" y="49" type="curve"/>
      <point x="200" y="48"/>
      <point x="200" y="54"/>
      <point x="194" y="54" type="curve"/>
      <point x="188" y="55"/>
      <point x="187" y="51"/>
      <point x="180" y="52" type="curve"/>
      <point x="171" y="58"/>
      <point x="161" y="63"/>
      <point x="149" y="65" type="curve"/>
      <point x="141" y="72"/>
      <point x="135" y="80"/>
      <point x="123" y="82" type="curve"/>
      <point x="115" y="89"/>
      <point x="107" y="95"/>
      <point x="98" y="101" type="curve"/>
      <point x="94" y="110"/>
      <point x="88" y="117"/>
      <point x="82" y="123" type="curve"/>
      <point x="80" y="133"/>
      <point x="74" y="137"/>
      <point x="73" y="145" type="curve"/>
      <point x="70" y="154"/>
      <point x="66" y="163"/>
      <point x="58" y="166" type="curve"/>
      <point x="49" y="166"/>
      <point x="46" y="160"/>
      <point x="40" y="157" type="curve"/>
      <point x="37" y="151"/>
      <point x="30" y="149"/>
      <point x="29" y="141" type="curve" smooth="yes"/>
      <point x="28" y="131"/>
      <point x="31" y="124"/>
      <point x="30" y="113" type="curve"/>
      <point x="37" y="105"/>
      <point x="43" y="98"/>
      <point x="46" y="88" type="curve"/>
      <point x="64" y="73"/>
      <point x="79" y="54"/>
      <point x="95" y="38" type="curve"/>
      <point x="112" y="31"/>
      <point x="128" y="23"/>
      <point x="142" y="13" type="curve"/>
      <point x="161" y="8"/>
      <point x="183" y="4"/>
      <point x="206" y="1" type="curve"/>
    </contour>
    <contour>
      <point x="205" y="413" type="line"/>
      <point x="188" y="423"/>
      <point x="172" y="434"/>
      <point x="153" y="443" type="curve"/>
      <point x="140" y="458"/>
      <point x="123" y="467"/>
      <point x="113" y="484" type="curve"/>
      <point x="114" y="501"/>
      <point x="110" y="512"/>
      <point x="107" y="525" type="curve"/>
      <point x="106" y="535"/>
      <point x="108" y="548"/>
      <point x="105" y="555" type="curve"/>
      <point x="110" y="563"/>
      <point x="112" y="572"/>
      <point x="115" y="581" type="curve"/>
      <point x="120" y="586"/>
      <point x="125" y="594"/>
      <point x="127" y="603" type="curve"/>
      <point x="141" y="614"/>
      <point x="151" y="630"/>
      <point x="167" y="639" type="curve" smooth="yes"/>
      <point x="176" y="644"/>
      <point x="189" y="649"/>
      <point x="202" y="653" type="curve"/>
      <point x="202" y="648"/>
      <point x="203" y="641"/>
      <point x="205" y="630" type="curve"/>
      <point x="204" y="568"/>
      <point x="204" y="507"/>
      <point x="205" y="446" type="curve" smooth="yes"/>
    </contour>
    <contour>
      <point x="249" y="342" type="line"/>
      <point x="257" y="338"/>
      <point x="266" y="335"/>
      <point x="275" y="333" type="curve"/>
      <point x="285" y="322"/>
      <point x="301" y="318"/>
      <point x="316" y="313" type="curve"/>
      <point x="325" y="305"/>
      <point x="334" y="298"/>
      <point x="344" y="292" type="curve"/>
      <point x="354" y="283"/>
      <point x="362" y="275"/>
      <point x="370" y="266" type="curve"/>
      <point x="376" y="253"/>
      <point x="386" y="242"/>
      <point x="390" y="227" type="curve"/>
      <point x="389" y="211"/>
      <point x="392" y="199"/>
      <point x="392" y="183" type="curve"/>
      <point x="388" y="171"/>
      <point x="385" y="158"/>
      <point x="379" y="148" type="curve"/>
      <point x="375" y="136"/>
      <point x="364" y="130"/>
      <point x="361" y="117" type="curve"/>
      <point x="355" y="112"/>
      <point x="348" y="106"/>
      <point x="344" y="101" type="curve"/>
      <point x="340" y="97"/>
      <point x="339" y="92"/>
      <point x="335" y="89" type="curve"/>
      <point x="324" y="86"/>
      <point x="318" y="79"/>
      <point x="311" y="73" type="curve"/>
      <point x="304" y="73"/>
      <point x="301" y="69"/>
      <point x="297" y="67" type="curve"/>
      <point x="284" y="65"/>
      <point x="276" y="60"/>
      <point x="267" y="56" type="curve"/>
      <point x="260" y="56"/>
      <point x="255" y="55"/>
      <point x="250" y="53" type="curve"/>
      <point x="251" y="102"/>
      <point x="251" y="152"/>
      <point x="251" y="195" type="curve" smooth="yes"/>
      <point x="251" y="216"/>
      <point x="250" y="236"/>
      <point x="252" y="256" type="curve"/>
      <point x="248" y="272"/>
      <point x="251" y="291"/>
      <point x="251" y="309" type="curve" smooth="yes"/>
      <point x="251" y="320"/>
      <point x="250" y="330"/>
      <point x="249" y="340" type="curve"/>
    </contour>
  </outline>
</glyph>
<glyph name="percent" format="1">
  <advance width="714"/>
  <unicode hex="0025"/>
  <outline>
    <contour>
      <point x="413" y="590" type="line"/>
      <point x="407" y="577"/>
      <point x="403" y="566"/>
      <point x="397" y="554" type="curve" smooth="yes"/>
      <point x="391" y="541"/>
      <point x="361" y="464"/>
      <point x="350" y="454" type="curve"/>
      <point x="347" y="439" type="line" smooth="yes"/>
      <point x="343" y="422"/>
      <point x="330" y="406"/>
      <point x="328" y="390" type="curve"/>
      <point x="316" y="374"/>
      <point x="314" y="357"/>
      <point x="304" y="341" type="curve"/>
      <point x="294" y="304"/>
      <point x="268" y="256"/>
      <point x="252" y="220" type="curve"/>
      <point x="240" y="183"/>
      <point x="200" y="112"/>
      <point x="190" y="84" type="curve"/>
      <point x="183" y="73"/>
      <point x="152" y="7"/>
      <point x="149" y="-4" type="curve"/>
      <point x="144" y="-12"/>
      <point x="138" y="-19"/>
      <point x="134" y="-28" type="curve"/>
      <point x="135" y="-43"/>
      <point x="154" y="-46"/>
      <point x="174" y="-45" type="curve" smooth="yes"/>
      <point x="195" y="-44"/>
      <point x="196" y="-45"/>
      <point x="208" y="-29" type="curve"/>
      <point x="216" y="-23"/>
      <point x="213" y="-15"/>
      <point x="216" y="-9" type="curve"/>
      <point x="221" y="-4"/>
      <point x="244" y="59"/>
      <point x="247" y="66" type="curve" smooth="yes"/>
      <point x="272" y="124"/>
      <point x="256" y="77"/>
      <point x="278" y="135" type="curve"/>
      <point x="281" y="142"/>
      <point x="286" y="145"/>
      <point x="289" y="152" type="curve"/>
      <point x="292" y="166"/>
      <point x="299" y="180"/>
      <point x="306" y="195" type="curve" smooth="yes"/>
      <point x="307" y="197"/>
      <point x="305" y="197"/>
      <point x="306" y="199" type="curve"/>
      <point x="312" y="210"/>
      <point x="321" y="223"/>
      <point x="322" y="234" type="curve"/>
      <point x="332" y="254"/>
      <point x="340" y="276"/>
      <point x="350" y="299" type="curve"/>
      <point x="358" y="321" type="line"/>
      <point x="361" y="327"/>
      <point x="367" y="335"/>
      <point x="370" y="341" type="curve" smooth="yes"/>
      <point x="379" y="358"/>
      <point x="383" y="374"/>
      <point x="389" y="388" type="curve" smooth="yes"/>
      <point x="396" y="406"/>
      <point x="401" y="422"/>
      <point x="412" y="438" type="curve"/>
      <point x="412" y="438"/>
      <point x="442" y="502"/>
      <point x="440" y="505" type="curve"/>
      <point x="437" y="507"/>
      <point x="445" y="515"/>
      <point x="445" y="517" type="curve"/>
      <point x="461" y="565"/>
      <point x="483" y="607"/>
      <point x="506" y="659" type="curve"/>
      <point x="509" y="667"/>
      <point x="516" y="668"/>
      <point x="519" y="678" type="curve"/>
      <point x="524" y="701"/>
      <point x="533" y="720"/>
      <point x="544" y="747" type="curve"/>
      <point x="554" y="760"/>
      <point x="564" y="781"/>
      <point x="558" y="789" type="curve"/>
      <point x="549" y="794"/>
      <point x="534" y="791"/>
      <point x="521" y="791" type="curve" smooth="yes"/>
      <point x="505" y="791"/>
      <point x="514" y="794"/>
      <point x="496" y="788" type="curve"/>
      <point x="483" y="774"/>
      <point x="482" y="758"/>
      <point x="476" y="743" type="curve"/>
      <point x="471" y="726"/>
      <point x="463" y="710"/>
      <point x="456" y="693" type="curve"/>
      <point x="446" y="666"/>
      <point x="431" y="629"/>
      <point x="419" y="605" type="curve"/>
    </contour>
    <contour>
      <point x="50" y="520" type="line"/>
      <point x="57" y="513"/>
      <point x="57" y="506"/>
      <point x="68" y="493" type="curve" smooth="yes"/>
      <point x="74" y="486"/>
      <point x="77" y="484"/>
      <point x="86" y="468" type="curve"/>
      <point x="89" y="468"/>
      <point x="92" y="465"/>
      <point x="95" y="460" type="curve"/>
      <point x="107" y="448"/>
      <point x="117" y="447"/>
      <point x="125" y="442" type="curve"/>
      <point x="136" y="442"/>
      <point x="144" y="433"/>
      <point x="153" y="432" type="curve" smooth="yes"/>
      <point x="162" y="431"/>
      <point x="171" y="431"/>
      <point x="184" y="429" type="curve"/>
      <point x="191" y="429"/>
      <point x="197" y="430"/>
      <point x="202" y="428" type="curve"/>
      <point x="209" y="433"/>
      <point x="219" y="433"/>
      <point x="225" y="436" type="curve"/>
      <point x="230" y="436"/>
      <point x="232" y="433"/>
      <point x="232" y="433" type="curve"/>
      <point x="243" y="442"/>
      <point x="250" y="443"/>
      <point x="261" y="449" type="curve"/>
      <point x="262" y="452"/>
      <point x="267" y="452"/>
      <point x="279" y="462" type="curve"/>
      <point x="288" y="472" type="line"/>
      <point x="307" y="488" type="line"/>
      <point x="315" y="497"/>
      <point x="321" y="507"/>
      <point x="328" y="513" type="curve"/>
      <point x="326" y="521"/>
      <point x="329" y="523"/>
      <point x="330" y="526" type="curve"/>
      <point x="330" y="533"/>
      <point x="334" y="538"/>
      <point x="338" y="542" type="curve"/>
      <point x="337" y="549"/>
      <point x="343" y="556"/>
      <point x="341" y="568" type="curve" smooth="yes"/>
      <point x="340" y="575"/>
      <point x="343" y="583"/>
      <point x="344" y="592" type="curve"/>
      <point x="343" y="598"/>
      <point x="342" y="601"/>
      <point x="343" y="607" type="curve"/>
      <point x="334" y="613"/>
      <point x="337" y="620"/>
      <point x="337" y="625" type="curve"/>
      <point x="332" y="637"/>
      <point x="328" y="647"/>
      <point x="320" y="658" type="curve"/>
      <point x="316" y="666"/>
      <point x="302" y="678"/>
      <point x="297" y="686" type="curve"/>
      <point x="285" y="700"/>
      <point x="276" y="711"/>
      <point x="263" y="720" type="curve" smooth="yes"/>
      <point x="252" y="728"/>
      <point x="241" y="729"/>
      <point x="230" y="734" type="curve"/>
      <point x="226" y="737"/>
      <point x="219" y="736"/>
      <point x="215" y="735" type="curve"/>
      <point x="204" y="737"/>
      <point x="200" y="736"/>
      <point x="196" y="738" type="curve"/>
      <point x="189" y="739"/>
      <point x="184" y="738"/>
      <point x="177" y="738" type="curve" smooth="yes"/>
      <point x="174" y="738"/>
      <point x="171" y="741"/>
      <point x="167" y="738" type="curve"/>
      <point x="155" y="735"/>
      <point x="148" y="732"/>
      <point x="143" y="734" type="curve"/>
      <point x="135" y="730"/>
      <point x="130" y="727"/>
      <point x="123" y="726" type="curve"/>
      <point x="113" y="718"/>
      <point x="108" y="714"/>
      <point x="93" y="706" type="curve"/>
      <point x="85" y="700"/>
      <point x="82" y="696"/>
      <point x="67" y="682" type="curve"/>
      <point x="62" y="676"/>
      <point x="51" y="669"/>
      <point x="45" y="656" type="curve"/>
      <point x="43" y="651"/>
      <point x="44" y="646"/>
      <point x="39" y="637" type="curve"/>
      <point x="39" y="630"/>
      <point x="36" y="622"/>
      <point x="36" y="614" type="curve"/>
      <point x="32" y="609"/>
      <point x="36" y="604"/>
      <point x="33" y="600" type="curve"/>
      <point x="33" y="596"/>
      <point x="33" y="594"/>
      <point x="30" y="586" type="curve"/>
      <point x="34" y="576"/>
      <point x="30" y="571"/>
      <point x="36" y="562" type="curve"/>
      <point x="37" y="559"/>
      <point x="38" y="553"/>
      <point x="37" y="549" type="curve"/>
      <point x="40" y="544"/>
      <point x="40" y="543"/>
      <point x="39" y="536" type="curve"/>
    </contour>
    <contour>
      <point x="263" y="502" type="line"/>
      <point x="263" y="502"/>
      <point x="261" y="501"/>
      <point x="256" y="501" type="curve"/>
      <point x="255" y="500"/>
      <point x="257" y="497"/>
      <point x="255" y="495" type="curve"/>
      <point x="251" y="497"/>
      <point x="242" y="489"/>
      <point x="230" y="480" type="curve"/>
      <point x="220" y="476"/>
      <point x="211" y="477"/>
      <point x="199" y="471" type="curve"/>
      <point x="195" y="472"/>
      <point x="188" y="469"/>
      <point x="184" y="472" type="curve"/>
      <point x="184" y="472"/>
      <point x="182" y="470"/>
      <point x="180" y="469" type="curve"/>
      <point x="176" y="472"/>
      <point x="174" y="470"/>
      <point x="174" y="470" type="curve"/>
      <point x="164" y="472"/>
      <point x="153" y="472"/>
      <point x="148" y="477" type="curve" smooth="yes"/>
      <point x="145" y="480"/>
      <point x="141" y="480"/>
      <point x="138" y="480" type="curve" smooth="yes"/>
      <point x="133" y="480"/>
      <point x="126" y="480"/>
      <point x="125" y="482" type="curve"/>
      <point x="105" y="504"/>
      <point x="102" y="509"/>
      <point x="96" y="516" type="curve"/>
      <point x="95" y="517"/>
      <point x="94" y="519"/>
      <point x="79" y="535" type="curve"/>
      <point x="81" y="543"/>
      <point x="81" y="549"/>
      <point x="79" y="553" type="curve"/>
      <point x="76" y="562"/>
      <point x="76" y="562"/>
      <point x="73" y="568" type="curve"/>
      <point x="79" y="573"/>
      <point x="71" y="584"/>
      <point x="75" y="587" type="curve"/>
      <point x="74" y="604"/>
      <point x="82" y="616"/>
      <point x="83" y="630" type="curve"/>
      <point x="87" y="634"/>
      <point x="86" y="647"/>
      <point x="88" y="650" type="curve" smooth="yes"/>
      <point x="103" y="672"/>
      <point x="105" y="674"/>
      <point x="106" y="677" type="curve"/>
      <point x="113" y="681"/>
      <point x="140" y="694"/>
      <point x="149" y="697" type="curve"/>
      <point x="153" y="695"/>
      <point x="158" y="694"/>
      <point x="167" y="701" type="curve"/>
      <point x="171" y="696"/>
      <point x="183" y="703"/>
      <point x="187" y="704" type="curve"/>
      <point x="202" y="703"/>
      <point x="207" y="699"/>
      <point x="223" y="694" type="curve"/>
      <point x="227" y="691"/>
      <point x="232" y="692"/>
      <point x="234" y="689" type="curve" smooth="yes"/>
      <point x="236" y="686"/>
      <point x="243" y="685"/>
      <point x="245" y="687" type="curve"/>
      <point x="252" y="680"/>
      <point x="267" y="665"/>
      <point x="272" y="665" type="curve"/>
      <point x="271" y="662"/>
      <point x="274" y="662"/>
      <point x="279" y="657" type="curve" smooth="yes"/>
      <point x="280" y="656"/>
      <point x="279" y="651"/>
      <point x="295" y="633" type="curve"/>
      <point x="296" y="623"/>
      <point x="298" y="612"/>
      <point x="302" y="605" type="curve"/>
      <point x="303" y="588"/>
      <point x="307" y="576"/>
      <point x="303" y="561" type="curve"/>
      <point x="296" y="548"/>
      <point x="292" y="545"/>
      <point x="289" y="533" type="curve"/>
      <point x="286" y="531"/>
      <point x="284" y="525"/>
      <point x="283" y="524" type="curve"/>
    </contour>
    <contour>
      <point x="550" y="-22" type="line"/>
      <point x="562" y="-20"/>
      <point x="573" y="-16"/>
      <point x="582" y="-16" type="curve"/>
      <point x="585" y="-9"/>
      <point x="589" y="-9"/>
      <point x="592" y="-8" type="curve"/>
      <point x="596" y="-2"/>
      <point x="603" y="-1"/>
      <point x="608" y="0" type="curve"/>
      <point x="612" y="5"/>
      <point x="621" y="7"/>
      <point x="627" y="18" type="curve"/>
      <point x="631" y="23"/>
      <point x="638" y="28"/>
      <point x="645" y="34" type="curve"/>
      <point x="648" y="39"/>
      <point x="649" y="42"/>
      <point x="654" y="46" type="curve"/>
      <point x="651" y="57"/>
      <point x="658" y="60"/>
      <point x="661" y="64" type="curve"/>
      <point x="665" y="76"/>
      <point x="668" y="87"/>
      <point x="669" y="100" type="curve"/>
      <point x="671" y="109"/>
      <point x="668" y="127"/>
      <point x="669" y="136" type="curve"/>
      <point x="669" y="155"/>
      <point x="665" y="168"/>
      <point x="665" y="184" type="curve"/>
      <point x="658" y="196"/>
      <point x="654" y="205"/>
      <point x="649" y="216" type="curve"/>
      <point x="648" y="221"/>
      <point x="642" y="225"/>
      <point x="638" y="227" type="curve"/>
      <point x="631" y="235"/>
      <point x="627" y="237"/>
      <point x="625" y="241" type="curve"/>
      <point x="621" y="246"/>
      <point x="616" y="249"/>
      <point x="611" y="253" type="curve"/>
      <point x="608" y="255"/>
      <point x="608" y="259"/>
      <point x="603" y="260" type="curve"/>
      <point x="592" y="265"/>
      <point x="585" y="267"/>
      <point x="582" y="272" type="curve"/>
      <point x="574" y="274"/>
      <point x="568" y="275"/>
      <point x="562" y="279" type="curve"/>
      <point x="549" y="279"/>
      <point x="543" y="279"/>
      <point x="526" y="283" type="curve"/>
      <point x="516" y="283"/>
      <point x="511" y="282"/>
      <point x="491" y="281" type="curve"/>
      <point x="483" y="279"/>
      <point x="471" y="275"/>
      <point x="457" y="275" type="curve"/>
      <point x="454" y="271"/>
      <point x="450" y="268"/>
      <point x="440" y="265" type="curve"/>
      <point x="436" y="259"/>
      <point x="428" y="255"/>
      <point x="423" y="249" type="curve"/>
      <point x="417" y="247"/>
      <point x="417" y="241"/>
      <point x="412" y="240" type="curve"/>
      <point x="409" y="237"/>
      <point x="408" y="235"/>
      <point x="401" y="231" type="curve"/>
      <point x="397" y="221"/>
      <point x="391" y="220"/>
      <point x="390" y="209" type="curve"/>
      <point x="388" y="206"/>
      <point x="385" y="201"/>
      <point x="382" y="198" type="curve"/>
      <point x="381" y="193"/>
      <point x="381" y="192"/>
      <point x="375" y="187" type="curve"/>
      <point x="375" y="180"/>
      <point x="374" y="176"/>
      <point x="374" y="168" type="curve" smooth="yes"/>
      <point x="374" y="158"/>
      <point x="370" y="153"/>
      <point x="370" y="136" type="curve" smooth="yes"/>
      <point x="370" y="127"/>
      <point x="371" y="123"/>
      <point x="368" y="105" type="curve"/>
      <point x="370" y="103"/>
      <point x="370" y="99"/>
      <point x="370" y="93" type="curve"/>
      <point x="371" y="76"/>
      <point x="378" y="69"/>
      <point x="381" y="60" type="curve"/>
      <point x="389" y="53"/>
      <point x="390" y="41"/>
      <point x="396" y="34" type="curve"/>
      <point x="402" y="28"/>
      <point x="409" y="22"/>
      <point x="417" y="12" type="curve"/>
      <point x="423" y="7"/>
      <point x="428" y="4"/>
      <point x="431" y="0" type="curve"/>
      <point x="440" y="-1"/>
      <point x="447" y="-8"/>
      <point x="454" y="-9" type="curve"/>
      <point x="457" y="-12"/>
      <point x="457" y="-16"/>
      <point x="457" y="-16" type="curve"/>
      <point x="471" y="-16"/>
      <point x="477" y="-20"/>
      <point x="489" y="-22" type="curve"/>
      <point x="492" y="-20"/>
      <point x="496" y="-24"/>
      <point x="512" y="-24" type="curve" smooth="yes"/>
      <point x="516" y="-24"/>
      <point x="523" y="-22"/>
      <point x="525" y="-22" type="curve" smooth="yes"/>
    </contour>
    <contour>
      <point x="439" y="44" type="line"/>
      <point x="439" y="49"/>
      <point x="436" y="49"/>
      <point x="436" y="49" type="curve"/>
      <point x="430" y="57"/>
      <point x="422" y="64"/>
      <point x="421" y="71" type="curve"/>
      <point x="421" y="75"/>
      <point x="417" y="79"/>
      <point x="416" y="80" type="curve"/>
      <point x="412" y="83"/>
      <point x="406" y="88"/>
      <point x="406" y="90" type="curve" smooth="yes"/>
      <point x="406" y="161" type="line"/>
      <point x="412" y="165"/>
      <point x="416" y="170"/>
      <point x="416" y="174" type="curve"/>
      <point x="421" y="182"/>
      <point x="421" y="182"/>
      <point x="422" y="189" type="curve"/>
      <point x="430" y="189"/>
      <point x="430" y="203"/>
      <point x="436" y="203" type="curve"/>
      <point x="446" y="217"/>
      <point x="460" y="220"/>
      <point x="469" y="230" type="curve"/>
      <point x="475" y="231"/>
      <point x="481" y="242"/>
      <point x="486" y="243" type="curve"/>
      <point x="512" y="250"/>
      <point x="515" y="243"/>
      <point x="517" y="243" type="curve" smooth="yes"/>
      <point x="526" y="243"/>
      <point x="554" y="243"/>
      <point x="563" y="240" type="curve"/>
      <point x="566" y="235"/>
      <point x="572" y="239"/>
      <point x="580" y="231" type="curve"/>
      <point x="584" y="226"/>
      <point x="593" y="223"/>
      <point x="597" y="220" type="curve"/>
      <point x="609" y="212"/>
      <point x="609" y="203"/>
      <point x="619" y="189" type="curve"/>
      <point x="619" y="185"/>
      <point x="623" y="182"/>
      <point x="623" y="179" type="curve" smooth="yes"/>
      <point x="623" y="174"/>
      <point x="628" y="170"/>
      <point x="631" y="170" type="curve"/>
      <point x="631" y="161"/>
      <point x="634" y="139"/>
      <point x="637" y="136" type="curve"/>
      <point x="634" y="134"/>
      <point x="637" y="132"/>
      <point x="637" y="126" type="curve" smooth="yes"/>
      <point x="637" y="124"/>
      <point x="634" y="121"/>
      <point x="634" y="96" type="curve"/>
      <point x="628" y="88"/>
      <point x="623" y="79"/>
      <point x="621" y="71" type="curve"/>
      <point x="612" y="57"/>
      <point x="608" y="42"/>
      <point x="593" y="35" type="curve"/>
      <point x="581" y="28"/>
      <point x="575" y="31"/>
      <point x="566" y="24" type="curve"/>
      <point x="561" y="24"/>
      <point x="557" y="20"/>
      <point x="554" y="20" type="curve"/>
      <point x="530" y="17"/>
      <point x="527" y="17"/>
      <point x="524" y="17" type="curve" smooth="yes"/>
      <point x="524" y="17"/>
      <point x="523" y="17"/>
      <point x="519" y="20" type="curve"/>
      <point x="517" y="20"/>
      <point x="517" y="17"/>
      <point x="514" y="17" type="curve"/>
      <point x="513" y="20"/>
      <point x="501" y="20"/>
      <point x="486" y="20" type="curve"/>
      <point x="475" y="24"/>
      <point x="469" y="31"/>
      <point x="457" y="33" type="curve"/>
      <point x="453" y="37"/>
      <point x="446" y="40"/>
      <point x="446" y="44" type="curve"/>
    </contour>
  </outline>
</glyph>
<glyph name="ampersand" format="1">
  <advance width="600"/>
  <unicode hex="0026"/>
  <outline>
    <contour>
      <point x="348" y="295" type="line"/>
      <point x="346" y="298"/>
      <point x="344" y="302"/>
      <point x="343" y="306" type="curve"/>
      <point x="339" y="309"/>
      <point x="336" y="313"/>
      <point x="334" y="317" type="curve"/>
      <point x="312" y="337"/>
      <point x="290" y="356"/>
      <point x="276" y="384" type="curve"/>
      <point x="270" y="387"/>
      <point x="259" y="404"/>
      <point x="261" y="409" type="curve"/>
      <point x="269" y="413"/>
      <point x="279" y="416"/>
      <point x="288" y="420" type="curve" smooth="yes"/>
      <point x="295" y="423"/>
      <point x="311" y="439"/>
      <point x="317" y="440" type="curve"/>
      <point x="323" y="447"/>
      <point x="329" y="454"/>
      <point x="339" y="458" type="curve"/>
      <point x="359" y="477" type="line"/>
      <point x="369" y="493"/>
      <point x="381" y="506"/>
      <point x="389" y="524" type="curve"/>
      <point x="391" y="538"/>
      <point x="391" y="555"/>
      <point x="392" y="570" type="curve"/>
      <point x="391" y="579"/>
      <point x="386" y="585"/>
      <point x="387" y="596" type="curve"/>
      <point x="380" y="608"/>
      <point x="376" y="625"/>
      <point x="367" y="636" type="curve"/>
      <point x="367" y="643"/>
      <point x="363" y="646"/>
      <point x="362" y="652" type="curve"/>
      <point x="352" y="661"/>
      <point x="338" y="667"/>
      <point x="328" y="677" type="curve"/>
      <point x="315" y="679"/>
      <point x="307" y="685"/>
      <point x="298" y="689" type="curve"/>
      <point x="269" y="692"/>
      <point x="240" y="690"/>
      <point x="217" y="688" type="curve"/>
      <point x="208" y="683"/>
      <point x="197" y="680"/>
      <point x="184" y="678" type="curve"/>
      <point x="176" y="671"/>
      <point x="165" y="666"/>
      <point x="156" y="660" type="curve"/>
      <point x="141" y="641"/>
      <point x="126" y="622"/>
      <point x="124" y="590" type="curve"/>
      <point x="121" y="586"/>
      <point x="120" y="580"/>
      <point x="118" y="576" type="curve"/>
      <point x="118" y="560"/>
      <point x="116" y="546"/>
      <point x="113" y="532" type="curve"/>
      <point x="114" y="531"/>
      <point x="115" y="531"/>
      <point x="115" y="529" type="curve"/>
      <point x="116" y="521"/>
      <point x="122" y="518"/>
      <point x="121" y="508" type="curve"/>
      <point x="127" y="503"/>
      <point x="131" y="496"/>
      <point x="132" y="486" type="curve"/>
      <point x="141" y="479"/>
      <point x="147" y="470"/>
      <point x="154" y="462" type="curve"/>
      <point x="159" y="451"/>
      <point x="168" y="445"/>
      <point x="175" y="436" type="curve"/>
      <point x="180" y="433"/>
      <point x="198" y="418"/>
      <point x="197" y="407" type="curve"/>
      <point x="191" y="401"/>
      <point x="182" y="397"/>
      <point x="175" y="392" type="curve"/>
      <point x="165" y="388"/>
      <point x="161" y="379"/>
      <point x="149" y="377" type="curve"/>
      <point x="141" y="365"/>
      <point x="129" y="353"/>
      <point x="116" y="347" type="curve"/>
      <point x="116" y="347"/>
      <point x="115" y="345"/>
      <point x="115" y="344" type="curve"/>
      <point x="114" y="344"/>
      <point x="112" y="345"/>
      <point x="112" y="344" type="curve"/>
      <point x="109" y="343"/>
      <point x="106" y="338"/>
      <point x="105" y="336" type="curve"/>
      <point x="102" y="335" type="line"/>
      <point x="99" y="332"/>
      <point x="96" y="331"/>
      <point x="93" y="328" type="curve"/>
      <point x="89" y="321"/>
      <point x="82" y="316"/>
      <point x="79" y="308" type="curve"/>
      <point x="74" y="301"/>
      <point x="68" y="295"/>
      <point x="63" y="289" type="curve"/>
      <point x="60" y="274"/>
      <point x="53" y="263"/>
      <point x="47" y="251" type="curve"/>
      <point x="48" y="235"/>
      <point x="40" y="227"/>
      <point x="41" y="210" type="curve"/>
      <point x="39" y="206"/>
      <point x="37" y="203"/>
      <point x="36" y="198" type="curve"/>
      <point x="36" y="182"/>
      <point x="37" y="166"/>
      <point x="33" y="155" type="curve"/>
      <point x="38" y="142"/>
      <point x="45" y="127"/>
      <point x="41" y="109" type="curve"/>
      <point x="42" y="101"/>
      <point x="51" y="101"/>
      <point x="53" y="94" type="curve"/>
      <point x="56" y="87"/>
      <point x="74" y="70"/>
      <point x="75" y="64" type="curve"/>
      <point x="82" y="59"/>
      <point x="89" y="53"/>
      <point x="94" y="46" type="curve"/>
      <point x="106" y="43"/>
      <point x="111" y="35"/>
      <point x="121" y="31" type="curve"/>
      <point x="126" y="22"/>
      <point x="133" y="16"/>
      <point x="140" y="10" type="curve"/>
      <point x="154" y="8"/>
      <point x="165" y="4"/>
      <point x="176" y="-1" type="curve"/>
      <point x="181" y="-1"/>
      <point x="195" y="-7"/>
      <point x="201" y="-6" type="curve" smooth="yes"/>
      <point x="206" y="-5"/>
      <point x="265" y="-3"/>
      <point x="272" y="-3" type="curve"/>
      <point x="284" y="-1"/>
      <point x="292" y="5"/>
      <point x="307" y="4" type="curve"/>
      <point x="318" y="11"/>
      <point x="326" y="20"/>
      <point x="335" y="29" type="curve"/>
      <point x="351" y="36"/>
      <point x="362" y="47"/>
      <point x="373" y="59" type="curve"/>
      <point x="386" y="65" type="line"/>
      <point x="393" y="80"/>
      <point x="402" y="92"/>
      <point x="414" y="100" type="curve"/>
      <point x="418" y="100"/>
      <point x="426" y="115"/>
      <point x="429" y="118" type="curve" smooth="yes"/>
      <point x="432" y="121"/>
      <point x="439" y="100"/>
      <point x="444" y="98" type="curve"/>
      <point x="451" y="91"/>
      <point x="490" y="43"/>
      <point x="495" y="40" type="curve"/>
      <point x="500" y="33"/>
      <point x="504" y="24"/>
      <point x="509" y="16" type="curve"/>
      <point x="518" y="8"/>
      <point x="544" y="4"/>
      <point x="556" y="13" type="curve"/>
      <point x="565" y="36"/>
      <point x="522" y="68"/>
      <point x="515" y="83" type="curve" smooth="yes"/>
      <point x="512" y="90"/>
      <point x="486" y="121"/>
      <point x="486" y="127" type="curve"/>
      <point x="487" y="133"/>
      <point x="458" y="159"/>
      <point x="457" y="166" type="curve"/>
      <point x="459" y="178"/>
      <point x="467" y="183"/>
      <point x="474" y="190" type="curve"/>
      <point x="479" y="199"/>
      <point x="485" y="207"/>
      <point x="495" y="212" type="curve"/>
      <point x="496" y="218"/>
      <point x="517" y="236"/>
      <point x="525" y="240" type="curve"/>
      <point x="529" y="255"/>
      <point x="526" y="269"/>
      <point x="526" y="288" type="curve" smooth="yes"/>
      <point x="526" y="295"/>
      <point x="533" y="304"/>
      <point x="526" y="310" type="curve"/>
      <point x="518" y="311"/>
      <point x="515" y="307"/>
      <point x="514" y="302" type="curve"/>
      <point x="510" y="298"/>
      <point x="507" y="293"/>
      <point x="504" y="289" type="curve" smooth="yes"/>
      <point x="498" y="281"/>
      <point x="491" y="273"/>
      <point x="482" y="267" type="curve"/>
      <point x="476" y="257"/>
      <point x="457" y="233"/>
      <point x="457" y="228" type="curve"/>
      <point x="446" y="223"/>
      <point x="444" y="209"/>
      <point x="432" y="206" type="curve"/>
      <point x="415" y="207"/>
      <point x="413" y="224"/>
      <point x="402" y="231" type="curve"/>
      <point x="390" y="251"/>
      <point x="374" y="268"/>
      <point x="361" y="286" type="curve"/>
    </contour>
    <contour>
      <point x="244" y="441"/>
      <point x="245" y="432"/>
      <point x="236" y="433" type="curve" smooth="yes"/>
      <point x="229" y="434"/>
      <point x="227" y="440"/>
      <point x="222" y="444" type="curve"/>
      <point x="221" y="451"/>
      <point x="214" y="452"/>
      <point x="213" y="459" type="curve"/>
      <point x="203" y="463"/>
      <point x="201" y="472"/>
      <point x="195" y="480" type="curve"/>
      <point x="193" y="483"/>
      <point x="191" y="484"/>
      <point x="189" y="486" type="curve"/>
      <point x="185" y="491"/>
      <point x="183" y="497"/>
      <point x="179" y="502" type="curve"/>
      <point x="177" y="506"/>
      <point x="171" y="510"/>
      <point x="170" y="518" type="curve"/>
      <point x="166" y="522"/>
      <point x="164" y="529"/>
      <point x="162" y="535" type="curve" smooth="yes"/>
      <point x="160" y="541"/>
      <point x="158" y="548"/>
      <point x="157" y="554" type="curve"/>
      <point x="156" y="574"/>
      <point x="166" y="592"/>
      <point x="173" y="606" type="curve"/>
      <point x="183" y="614"/>
      <point x="192" y="624"/>
      <point x="203" y="631" type="curve"/>
      <point x="219" y="637"/>
      <point x="233" y="645"/>
      <point x="255" y="644" type="curve"/>
      <point x="274" y="642"/>
      <point x="291" y="639"/>
      <point x="307" y="634" type="curve"/>
      <point x="320" y="624"/>
      <point x="340" y="612"/>
      <point x="345" y="603" type="curve" smooth="yes"/>
      <point x="350" y="594"/>
      <point x="346" y="577"/>
      <point x="353" y="571" type="curve"/>
      <point x="351" y="564"/>
      <point x="349" y="557"/>
      <point x="348" y="549" type="curve"/>
      <point x="341" y="540"/>
      <point x="335" y="530"/>
      <point x="331" y="518" type="curve"/>
      <point x="323" y="509"/>
      <point x="316" y="500"/>
      <point x="310" y="489" type="curve"/>
      <point x="299" y="482"/>
      <point x="291" y="472"/>
      <point x="282" y="462" type="curve"/>
      <point x="275" y="460"/>
      <point x="270" y="456"/>
      <point x="265" y="453" type="curve"/>
      <point x="260" y="449"/>
      <point x="255" y="445"/>
      <point x="252" y="440" type="curve"/>
    </contour>
    <contour>
      <point x="367" y="215" type="line"/>
      <point x="373" y="209" type="line" smooth="yes"/>
      <point x="375" y="207"/>
      <point x="375" y="203"/>
      <point x="376" y="201" type="curve"/>
      <point x="383" y="192"/>
      <point x="392" y="186"/>
      <point x="397" y="176" type="curve"/>
      <point x="399" y="175"/>
      <point x="398" y="172"/>
      <point x="400" y="172" type="curve"/>
      <point x="402" y="161"/>
      <point x="390" y="162"/>
      <point x="387" y="155" type="curve"/>
      <point x="382" y="152"/>
      <point x="379" y="145"/>
      <point x="375" y="141" type="curve"/>
      <point x="361" y="134"/>
      <point x="353" y="120"/>
      <point x="339" y="113" type="curve" smooth="yes"/>
      <point x="331" y="109"/>
      <point x="329" y="100"/>
      <point x="320" y="98" type="curve"/>
      <point x="317" y="91"/>
      <point x="309" y="88"/>
      <point x="306" y="81" type="curve"/>
      <point x="304" y="81"/>
      <point x="303" y="81"/>
      <point x="302" y="79" type="curve"/>
      <point x="294" y="76"/>
      <point x="288" y="71"/>
      <point x="279" y="68" type="curve"/>
      <point x="273" y="63"/>
      <point x="261" y="64"/>
      <point x="255" y="59" type="curve"/>
      <point x="237" y="55"/>
      <point x="217" y="62"/>
      <point x="198" y="57" type="curve"/>
      <point x="189" y="61"/>
      <point x="180" y="66"/>
      <point x="173" y="72" type="curve"/>
      <point x="160" y="73"/>
      <point x="150" y="78"/>
      <point x="140" y="83" type="curve"/>
      <point x="133" y="79"/>
      <point x="124" y="92"/>
      <point x="124" y="100" type="curve"/>
      <point x="122" y="106"/>
      <point x="117" y="109"/>
      <point x="113" y="114" type="curve"/>
      <point x="113" y="115"/>
      <point x="110" y="115"/>
      <point x="110" y="116" type="curve"/>
      <point x="107" y="123"/>
      <point x="101" y="130"/>
      <point x="94" y="136" type="curve"/>
      <point x="87" y="150"/>
      <point x="85" y="168"/>
      <point x="80" y="183" type="curve"/>
      <point x="79" y="207"/>
      <point x="90" y="235"/>
      <point x="94" y="244" type="curve" smooth="yes"/>
      <point x="98" y="253"/>
      <point x="123" y="296"/>
      <point x="134" y="294" type="curve"/>
      <point x="141" y="296"/>
      <point x="145" y="303"/>
      <point x="151" y="306" type="curve"/>
      <point x="152" y="313"/>
      <point x="154" y="318"/>
      <point x="156" y="324" type="curve"/>
      <point x="163" y="328"/>
      <point x="166" y="337"/>
      <point x="176" y="338" type="curve"/>
      <point x="181" y="345"/>
      <point x="189" y="350"/>
      <point x="194" y="358" type="curve"/>
      <point x="204" y="362"/>
      <point x="209" y="372"/>
      <point x="220" y="374" type="curve"/>
      <point x="232" y="373"/>
      <point x="236" y="362"/>
      <point x="246" y="358" type="curve"/>
      <point x="253" y="341"/>
      <point x="267" y="331"/>
      <point x="280" y="319" type="curve"/>
      <point x="282" y="316"/>
      <point x="284" y="313"/>
      <point x="283" y="308" type="curve"/>
      <point x="289" y="305"/>
      <point x="300" y="292"/>
      <point x="301" y="289" type="curve"/>
      <point x="305" y="286"/>
      <point x="321" y="270"/>
      <point x="324" y="265" type="curve"/>
      <point x="325" y="258"/>
      <point x="333" y="259"/>
      <point x="334" y="251" type="curve"/>
      <point x="344" y="246"/>
      <point x="347" y="234"/>
      <point x="356" y="228" type="curve"/>
    </contour>
  </outline>
</glyph>
<glyph name="quotesingle" format="1">
  <advance width="170"/>
  <unicode hex="0027"/>
  <outline>
    <contour>
      <point x="98" y="541"/>
      <point x="95" y="566"/>
      <point x="101" y="587" type="curve"/>
      <point x="94" y="605"/>
      <point x="99" y="620"/>
      <point x="103" y="628" type="curve"/>
      <point x="94" y="649"/>
      <point x="106" y="664"/>
      <point x="102" y="680" type="curve"/>
      <point x="103" y="684"/>
      <point x="107" y="687"/>
      <point x="108" y="691" type="curve"/>
      <point x="108" y="695"/>
      <point x="107" y="698"/>
      <point x="111" y="703" type="curve"/>
      <point x="103" y="716"/>
      <point x="113" y="724"/>
      <point x="106" y="738" type="curve"/>
      <point x="104" y="740"/>
      <point x="103" y="740"/>
      <point x="102" y="742" type="curve"/>
      <point x="80" y="746"/>
      <point x="77" y="750"/>
      <point x="46" y="736" type="curve"/>
      <point x="45" y="719"/>
      <point x="52" y="697"/>
      <point x="51" y="682" type="curve"/>
      <point x="51" y="641"/>
      <point x="47" y="616"/>
      <point x="57" y="576" type="curve"/>
      <point x="51" y="569"/>
      <point x="55" y="543"/>
      <point x="58" y="536" type="curve"/>
      <point x="55" y="534"/>
      <point x="58" y="533"/>
      <point x="57" y="532" type="curve"/>
      <point x="55" y="524"/>
      <point x="51" y="519"/>
      <point x="58" y="513" type="curve" smooth="yes"/>
      <point x="65" y="507"/>
      <point x="62" y="507"/>
      <point x="70" y="505" type="curve"/>
      <point x="83" y="509"/>
      <point x="82" y="515"/>
      <point x="93" y="519" type="curve"/>
    </contour>
  </outline>
</glyph>
<glyph name="parenleft" format="1">
  <advance width="372"/>
  <unicode hex="0028"/>
  <outline>
    <contour>
      <point x="178" y="143" type="line"/>
      <point x="172" y="165" type="line"/>
      <point x="168" y="215"/>
      <point x="163" y="267"/>
      <point x="163" y="316" type="curve"/>
      <point x="170" y="330"/>
      <point x="164" y="347"/>
      <point x="164" y="362" type="curve" smooth="yes"/>
      <point x="164" y="384"/>
      <point x="168" y="406"/>
      <point x="166" y="426" type="curve"/>
      <point x="167" y="436"/>
      <point x="171" y="446"/>
      <point x="170" y="456" type="curve"/>
      <point x="170" y="463"/>
      <point x="167" y="468"/>
      <point x="167" y="475" type="curve"/>
      <point x="181" y="510" type="line"/>
      <point x="180" y="527"/>
      <point x="187" y="537"/>
      <point x="189" y="551" type="curve"/>
      <point x="189" y="565" type="line"/>
      <point x="195" y="582"/>
      <point x="196" y="604"/>
      <point x="197" y="620" type="curve"/>
      <point x="199" y="630"/>
      <point x="202" y="638"/>
      <point x="202" y="649" type="curve" smooth="yes"/>
      <point x="202" y="660"/>
      <point x="209" y="669"/>
      <point x="200" y="675" type="curve" smooth="yes"/>
      <point x="193" y="680"/>
      <point x="186" y="674"/>
      <point x="180" y="672" type="curve"/>
      <point x="175" y="676"/>
      <point x="168" y="676"/>
      <point x="163" y="672" type="curve"/>
      <point x="158" y="665"/>
      <point x="159" y="659"/>
      <point x="159" y="649" type="curve"/>
      <point x="156" y="639"/>
      <point x="152" y="628"/>
      <point x="147" y="620" type="curve"/>
      <point x="143" y="592"/>
      <point x="141" y="561"/>
      <point x="134" y="535" type="curve"/>
      <point x="135" y="505"/>
      <point x="121" y="483"/>
      <point x="129" y="455" type="curve"/>
      <point x="128" y="447"/>
      <point x="127" y="438"/>
      <point x="123" y="433" type="curve"/>
      <point x="126" y="408"/>
      <point x="127" y="377"/>
      <point x="122" y="352" type="curve"/>
      <point x="124" y="342"/>
      <point x="124" y="322"/>
      <point x="122" y="311" type="curve"/>
      <point x="127" y="285"/>
      <point x="128" y="265"/>
      <point x="129" y="236" type="curve" smooth="yes"/>
      <point x="129" y="229"/>
      <point x="127" y="223"/>
      <point x="126" y="217" type="curve"/>
      <point x="128" y="209"/>
      <point x="134" y="205"/>
      <point x="134" y="196" type="curve"/>
      <point x="131" y="150"/>
      <point x="139" y="104"/>
      <point x="142" y="59" type="curve"/>
      <point x="149" y="43"/>
      <point x="154" y="24"/>
      <point x="156" y="4" type="curve"/>
      <point x="160" y="-2"/>
      <point x="167" y="-6"/>
      <point x="172" y="-10" type="curve"/>
      <point x="176" y="-16"/>
      <point x="188" y="-11"/>
      <point x="194" y="-12" type="curve"/>
      <point x="202" y="-8"/>
      <point x="215" y="-8"/>
      <point x="213" y="6" type="curve"/>
      <point x="207" y="17"/>
      <point x="199" y="27"/>
      <point x="200" y="45" type="curve"/>
      <point x="197" y="49"/>
      <point x="194" y="53"/>
      <point x="193" y="59" type="curve" smooth="yes"/>
      <point x="189" y="83"/>
      <point x="184" y="106"/>
      <point x="178" y="128" type="curve"/>
    </contour>
  </outline>
</glyph>
<glyph name="parenright" format="1">
  <advance width="353"/>
  <unicode hex="0029"/>
  <outline>
    <contour>
      <point x="224" y="370" type="line"/>
      <point x="222" y="376"/>
      <point x="219" y="382"/>
      <point x="218" y="389" type="curve"/>
      <point x="214" y="435"/>
      <point x="213" y="484"/>
      <point x="205" y="526" type="curve"/>
      <point x="205" y="545" type="line"/>
      <point x="203" y="550"/>
      <point x="202" y="557"/>
      <point x="199" y="562" type="curve"/>
      <point x="189" y="628" type="line"/>
      <point x="180" y="641"/>
      <point x="184" y="668"/>
      <point x="171" y="677" type="curve"/>
      <point x="152" y="677"/>
      <point x="139" y="680"/>
      <point x="131" y="669" type="curve"/>
      <point x="132" y="660"/>
      <point x="136" y="655"/>
      <point x="133" y="646" type="curve"/>
      <point x="136" y="639"/>
      <point x="138" y="631"/>
      <point x="137" y="620" type="curve"/>
      <point x="139" y="615"/>
      <point x="144" y="614"/>
      <point x="144" y="608" type="curve"/>
      <point x="143" y="580"/>
      <point x="155" y="565"/>
      <point x="153" y="537" type="curve"/>
      <point x="156" y="525"/>
      <point x="162" y="512"/>
      <point x="164" y="497" type="curve" smooth="yes"/>
      <point x="166" y="477" type="line"/>
      <point x="171" y="433" type="line" smooth="yes"/>
      <point x="172" y="426"/>
      <point x="176" y="421"/>
      <point x="177" y="414" type="curve"/>
      <point x="174" y="382"/>
      <point x="179" y="352"/>
      <point x="178" y="319" type="curve" smooth="yes"/>
      <point x="178" y="303"/>
      <point x="174" y="286"/>
      <point x="177" y="269" type="curve"/>
      <point x="176" y="263"/>
      <point x="173" y="260"/>
      <point x="174" y="253" type="curve"/>
      <point x="176" y="243"/>
      <point x="175" y="232"/>
      <point x="175" y="220" type="curve"/>
      <point x="174" y="215"/>
      <point x="171" y="210"/>
      <point x="171" y="204" type="curve"/>
      <point x="174" y="180"/>
      <point x="166" y="153"/>
      <point x="161" y="132" type="curve"/>
      <point x="164" y="119"/>
      <point x="159" y="108"/>
      <point x="155" y="99" type="curve"/>
      <point x="154" y="82"/>
      <point x="150" y="70"/>
      <point x="148" y="54" type="curve"/>
      <point x="146" y="48"/>
      <point x="141" y="45"/>
      <point x="139" y="39" type="curve"/>
      <point x="139" y="32"/>
      <point x="142" y="31"/>
      <point x="139" y="26" type="curve" smooth="yes"/>
      <point x="135" y="19"/>
      <point x="130" y="12"/>
      <point x="131" y="-1" type="curve"/>
      <point x="138" y="-16"/>
      <point x="186" y="-10"/>
      <point x="186" y="-9" type="curve"/>
      <point x="187" y="-2"/>
      <point x="193" y="3"/>
      <point x="194" y="7" type="curve"/>
      <point x="197" y="14"/>
      <point x="195" y="22"/>
      <point x="197" y="31" type="curve" smooth="yes"/>
      <point x="198" y="36"/>
      <point x="202" y="39"/>
      <point x="202" y="43" type="curve" smooth="yes"/>
      <point x="202" y="52"/>
      <point x="205" y="57"/>
      <point x="204" y="67" type="curve"/>
      <point x="214" y="92"/>
      <point x="214" y="119"/>
      <point x="216" y="152" type="curve"/>
      <point x="223" y="171"/>
      <point x="222" y="198"/>
      <point x="223" y="223" type="curve"/>
      <point x="227" y="233"/>
      <point x="228" y="246"/>
      <point x="230" y="258" type="curve"/>
      <point x="229" y="264"/>
      <point x="224" y="269"/>
      <point x="224" y="277" type="curve" smooth="yes"/>
    </contour>
  </outline>
</glyph>
<glyph name="asterisk" format="1">
  <advance width="369"/>
  <unicode hex="002A"/>
  <outline>
    <contour>
      <point x="111" y="573" type="line"/>
      <point x="117" y="571"/>
      <point x="120" y="565"/>
      <point x="126" y="563" type="curve"/>
      <point x="128" y="561"/>
      <point x="132" y="561"/>
      <point x="136" y="562" type="curve"/>
      <point x="139" y="559"/>
      <point x="141" y="556"/>
      <point x="145" y="554" type="curve"/>
      <point x="148" y="552"/>
      <point x="157" y="554"/>
      <point x="155" y="546" type="curve"/>
      <point x="152" y="537"/>
      <point x="140" y="539"/>
      <point x="134" y="533" type="curve"/>
      <point x="125" y="531"/>
      <point x="121" y="524"/>
      <point x="111" y="524" type="curve"/>
      <point x="97" y="514"/>
      <point x="81" y="507"/>
      <point x="66" y="499" type="curve"/>
      <point x="60" y="490"/>
      <point x="50" y="486"/>
      <point x="49" y="472" type="curve"/>
      <point x="56" y="467"/>
      <point x="61" y="457"/>
      <point x="71" y="454" type="curve"/>
      <point x="83" y="452"/>
      <point x="94" y="459"/>
      <point x="106" y="461" type="curve"/>
      <point x="117" y="471"/>
      <point x="131" y="480"/>
      <point x="144" y="489" type="curve"/>
      <point x="148" y="493"/>
      <point x="149" y="499"/>
      <point x="158" y="499" type="curve"/>
      <point x="163" y="500"/>
      <point x="164" y="497"/>
      <point x="167" y="497" type="curve"/>
      <point x="179" y="475"/>
      <point x="170" y="456"/>
      <point x="169" y="432" type="curve" smooth="yes"/>
      <point x="167" y="398" type="line"/>
      <point x="170" y="396"/>
      <point x="170" y="391"/>
      <point x="172" y="388" type="curve"/>
      <point x="187" y="379"/>
      <point x="209" y="386"/>
      <point x="211" y="404" type="curve"/>
      <point x="204" y="426"/>
      <point x="206" y="448"/>
      <point x="207" y="476" type="curve"/>
      <point x="206" y="482"/>
      <point x="204" y="485"/>
      <point x="204" y="491" type="curve"/>
      <point x="205" y="496"/>
      <point x="201" y="507"/>
      <point x="207" y="508" type="curve"/>
      <point x="217" y="506"/>
      <point x="221" y="498"/>
      <point x="230" y="495" type="curve"/>
      <point x="236" y="491"/>
      <point x="238" y="484"/>
      <point x="243" y="480" type="curve"/>
      <point x="248" y="475"/>
      <point x="250" y="468"/>
      <point x="254" y="462" type="curve"/>
      <point x="272" y="458"/>
      <point x="294" y="448"/>
      <point x="314" y="456" type="curve"/>
      <point x="320" y="464"/>
      <point x="325" y="480"/>
      <point x="319" y="491" type="curve"/>
      <point x="313" y="495"/>
      <point x="307" y="499"/>
      <point x="303" y="505" type="curve"/>
      <point x="289" y="507"/>
      <point x="278" y="513"/>
      <point x="270" y="521" type="curve"/>
      <point x="258" y="522"/>
      <point x="251" y="527"/>
      <point x="243" y="532" type="curve"/>
      <point x="233" y="535"/>
      <point x="226" y="541"/>
      <point x="219" y="547" type="curve"/>
      <point x="227" y="556"/>
      <point x="236" y="562"/>
      <point x="251" y="563" type="curve"/>
      <point x="261" y="571"/>
      <point x="269" y="582"/>
      <point x="281" y="588" type="curve"/>
      <point x="307" y="584"/>
      <point x="329" y="605"/>
      <point x="312" y="623" type="curve"/>
      <point x="312" y="630"/>
      <point x="309" y="636"/>
      <point x="304" y="639" type="curve"/>
      <point x="283" y="637"/>
      <point x="281" y="619"/>
      <point x="271" y="618" type="curve"/>
      <point x="255" y="612"/>
      <point x="244" y="602"/>
      <point x="232" y="592" type="curve"/>
      <point x="221" y="590"/>
      <point x="216" y="583"/>
      <point x="207" y="580" type="curve"/>
      <point x="199" y="590"/>
      <point x="201" y="609"/>
      <point x="197" y="623" type="curve"/>
      <point x="203" y="643"/>
      <point x="205" y="665"/>
      <point x="205" y="691" type="curve"/>
      <point x="202" y="697"/>
      <point x="199" y="702"/>
      <point x="194" y="705" type="curve"/>
      <point x="183" y="706"/>
      <point x="178" y="702"/>
      <point x="172" y="697" type="curve"/>
      <point x="172" y="695"/>
      <point x="172" y="693"/>
      <point x="170" y="692" type="curve"/>
      <point x="173" y="680"/>
      <point x="171" y="667"/>
      <point x="170" y="655" type="curve"/>
      <point x="170" y="640"/>
      <point x="172" y="623"/>
      <point x="172" y="607" type="curve" smooth="yes"/>
      <point x="172" y="597"/>
      <point x="175" y="585"/>
      <point x="167" y="579" type="curve"/>
      <point x="156" y="580"/>
      <point x="149" y="585"/>
      <point x="145" y="593" type="curve"/>
      <point x="132" y="599"/>
      <point x="123" y="609"/>
      <point x="111" y="615" type="curve"/>
      <point x="106" y="621"/>
      <point x="101" y="628"/>
      <point x="95" y="633" type="curve"/>
      <point x="85" y="635"/>
      <point x="68" y="638"/>
      <point x="59" y="633" type="curve"/>
      <point x="56" y="625"/>
      <point x="59" y="619"/>
      <point x="55" y="610" type="curve"/>
      <point x="58" y="601"/>
      <point x="68" y="599"/>
      <point x="71" y="590" type="curve"/>
      <point x="78" y="585"/>
      <point x="83" y="577"/>
      <point x="92" y="573" type="curve"/>
    </contour>
  </outline>
</glyph>
<glyph name="plus" format="1">
  <advance width="373"/>
  <unicode hex="002B"/>
  <outline>
    <contour>
      <point x="166" y="193" type="line"/>
      <point x="166" y="189" type="line"/>
      <point x="152" y="188"/>
      <point x="135" y="186"/>
      <point x="121" y="186" type="curve" smooth="yes"/>
      <point x="108" y="186"/>
      <point x="66" y="187"/>
      <point x="58" y="186" type="curve" smooth="yes"/>
      <point x="50" y="185"/>
      <point x="29" y="184"/>
      <point x="29" y="184" type="curve"/>
      <point x="28" y="173"/>
      <point x="29" y="169"/>
      <point x="32" y="158" type="curve"/>
      <point x="39" y="153"/>
      <point x="42" y="143"/>
      <point x="58" y="148" type="curve" smooth="yes"/>
      <point x="65" y="150"/>
      <point x="73" y="151"/>
      <point x="81" y="152" type="curve" smooth="yes"/>
      <point x="92" y="153"/>
      <point x="105" y="153"/>
      <point x="114" y="150" type="curve"/>
      <point x="132" y="153" type="line"/>
      <point x="139" y="153"/>
      <point x="153" y="151"/>
      <point x="164" y="150" type="curve"/>
      <point x="166" y="139" type="line" smooth="yes"/>
      <point x="168" y="126"/>
      <point x="166" y="40"/>
      <point x="167" y="32" type="curve"/>
      <point x="168" y="26"/>
      <point x="169" y="20"/>
      <point x="169" y="14" type="curve"/>
      <point x="175" y="7"/>
      <point x="185" y="4"/>
      <point x="196" y="3" type="curve" smooth="yes"/>
      <point x="207" y="2"/>
      <point x="198" y="3"/>
      <point x="209" y="6" type="curve"/>
      <point x="214" y="13"/>
      <point x="224" y="16"/>
      <point x="219" y="32" type="curve" smooth="yes"/>
      <point x="217" y="39"/>
      <point x="216" y="47"/>
      <point x="215" y="55" type="curve" smooth="yes"/>
      <point x="214" y="66"/>
      <point x="214" y="79"/>
      <point x="217" y="88" type="curve"/>
      <point x="212" y="129" type="line"/>
      <point x="211" y="133"/>
      <point x="212" y="142"/>
      <point x="212" y="152" type="curve"/>
      <point x="248" y="155"/>
      <point x="300" y="158"/>
      <point x="309" y="154" type="curve" smooth="yes"/>
      <point x="316" y="151"/>
      <point x="324" y="158"/>
      <point x="331" y="159" type="curve"/>
      <point x="350" y="208"/>
      <point x="301" y="193"/>
      <point x="282" y="194" type="curve"/>
      <point x="277" y="194"/>
      <point x="236" y="193"/>
      <point x="215" y="193" type="curve"/>
      <point x="215" y="195" type="line" smooth="yes"/>
      <point x="215" y="201"/>
      <point x="207" y="294"/>
      <point x="213" y="307" type="curve" smooth="yes"/>
      <point x="216" y="314"/>
      <point x="213" y="324"/>
      <point x="208" y="329" type="curve" smooth="yes"/>
      <point x="205" y="332"/>
      <point x="202" y="333"/>
      <point x="200" y="334" type="curve"/>
      <point x="191" y="339"/>
      <point x="198" y="341"/>
      <point x="188" y="340" type="curve"/>
      <point x="180" y="337"/>
      <point x="171" y="334"/>
      <point x="167" y="326" type="curve"/>
      <point x="165" y="311"/>
      <point x="169" y="273"/>
      <point x="168" y="257" type="curve" smooth="yes"/>
    </contour>
  </outline>
</glyph>
<glyph name="comma" format="1">
  <advance width="268"/>
  <unicode hex="002C"/>
  <outline>
    <contour>
      <point x="101" y="-58" type="line" smooth="yes"/>
      <point x="97" y="-69"/>
      <point x="95" y="-80"/>
      <point x="92" y="-91" type="curve"/>
      <point x="89" y="-96"/>
      <point x="81" y="-96"/>
      <point x="79" y="-102" type="curve"/>
      <point x="70" y="-138"/>
      <point x="79" y="-137"/>
      <point x="109" y="-132" type="curve"/>
      <point x="112" y="-129"/>
      <point x="115" y="-125"/>
      <point x="119" y="-123" type="curve"/>
      <point x="120" y="-117"/>
      <point x="123" y="-113"/>
      <point x="122" y="-104" type="curve"/>
      <point x="130" y="-89"/>
      <point x="135" y="-71"/>
      <point x="147" y="-60" type="curve"/>
      <point x="153" y="-44"/>
      <point x="158" y="-27"/>
      <point x="168" y="-14" type="curve"/>
      <point x="168" y="-7"/>
      <point x="170" y="-2"/>
      <point x="171" y="5" type="curve"/>
      <point x="173" y="12"/>
      <point x="180" y="13"/>
      <point x="182" y="20" type="curve"/>
      <point x="189" y="31"/>
      <point x="190" y="45"/>
      <point x="194" y="57" type="curve"/>
      <point x="198" y="66"/>
      <point x="207" y="72"/>
      <point x="210" y="80" type="curve"/>
      <point x="213" y="89"/>
      <point x="221" y="94"/>
      <point x="221" y="106" type="curve"/>
      <point x="217" y="113"/>
      <point x="209" y="116"/>
      <point x="204" y="121" type="curve"/>
      <point x="181" y="124"/>
      <point x="197" y="130"/>
      <point x="171" y="128" type="curve"/>
      <point x="157" y="118"/>
      <point x="155" y="96"/>
      <point x="150" y="76" type="curve"/>
      <point x="136" y="51"/>
      <point x="130" y="22"/>
      <point x="120" y="-6" type="curve"/>
      <point x="118" y="-13"/>
      <point x="115" y="-19"/>
      <point x="112" y="-26" type="curve"/>
    </contour>
  </outline>
</glyph>
<glyph name="hyphen" format="1">
  <advance width="254"/>
  <unicode hex="002D"/>
  <outline>
    <contour>
      <point x="127" y="188" type="line"/>
      <point x="138" y="189"/>
      <point x="149" y="185"/>
      <point x="160" y="185" type="curve" smooth="yes"/>
      <point x="178" y="185"/>
      <point x="194" y="191"/>
      <point x="210" y="194" type="curve"/>
      <point x="211" y="198"/>
      <point x="214" y="200"/>
      <point x="215" y="202" type="curve"/>
      <point x="220" y="211"/>
      <point x="222" y="216"/>
      <point x="221" y="226" type="curve"/>
      <point x="218" y="234"/>
      <point x="215" y="232"/>
      <point x="207" y="236" type="curve"/>
      <point x="192" y="238"/>
      <point x="177" y="235"/>
      <point x="161" y="236" type="curve"/>
      <point x="155" y="236"/>
      <point x="148" y="237"/>
      <point x="141" y="237" type="curve" smooth="yes"/>
      <point x="134" y="237"/>
      <point x="106" y="233"/>
      <point x="99" y="233" type="curve" smooth="yes"/>
      <point x="85" y="233"/>
      <point x="73" y="234"/>
      <point x="70" y="234" type="curve" smooth="yes"/>
      <point x="55" y="234"/>
      <point x="49" y="235"/>
      <point x="35" y="234" type="curve"/>
      <point x="21" y="222"/>
      <point x="21" y="214"/>
      <point x="27" y="193" type="curve"/>
      <point x="51" y="174"/>
      <point x="82" y="196"/>
      <point x="109" y="185" type="curve"/>
    </contour>
  </outline>
</glyph>
<glyph name="slash" format="1">
  <advance width="385"/>
  <unicode hex="002F"/>
  <outline>
    <contour>
      <point x="255" y="480" type="line"/>
      <point x="249" y="467"/>
      <point x="245" y="456"/>
      <point x="239" y="444" type="curve" smooth="yes"/>
      <point x="233" y="431"/>
      <point x="203" y="354"/>
      <point x="192" y="344" type="curve"/>
      <point x="189" y="329" type="line" smooth="yes"/>
      <point x="185" y="312"/>
      <point x="172" y="296"/>
      <point x="170" y="280" type="curve"/>
      <point x="158" y="264"/>
      <point x="156" y="247"/>
      <point x="146" y="231" type="curve"/>
      <point x="136" y="194"/>
      <point x="110" y="146"/>
      <point x="94" y="110" type="curve"/>
      <point x="82" y="73"/>
      <point x="50" y="17"/>
      <point x="40" y="-11" type="curve"/>
      <point x="33" y="-22"/>
      <point x="27" y="-34"/>
      <point x="24" y="-45" type="curve"/>
      <point x="19" y="-53"/>
      <point x="13" y="-60"/>
      <point x="9" y="-69" type="curve"/>
      <point x="10" y="-84"/>
      <point x="4" y="-87"/>
      <point x="24" y="-86" type="curve" smooth="yes"/>
      <point x="45" y="-85"/>
      <point x="46" y="-86"/>
      <point x="58" y="-70" type="curve"/>
      <point x="66" y="-64"/>
      <point x="63" y="-56"/>
      <point x="66" y="-50" type="curve"/>
      <point x="71" y="-45"/>
      <point x="69" y="-36"/>
      <point x="72" y="-29" type="curve" smooth="yes"/>
      <point x="97" y="29"/>
      <point x="73" y="-33"/>
      <point x="95" y="25" type="curve"/>
      <point x="98" y="32"/>
      <point x="103" y="35"/>
      <point x="106" y="42" type="curve"/>
      <point x="109" y="56"/>
      <point x="116" y="70"/>
      <point x="123" y="85" type="curve" smooth="yes"/>
      <point x="124" y="87"/>
      <point x="122" y="87"/>
      <point x="123" y="89" type="curve"/>
      <point x="129" y="100"/>
      <point x="138" y="113"/>
      <point x="139" y="124" type="curve"/>
      <point x="149" y="144"/>
      <point x="157" y="166"/>
      <point x="167" y="189" type="curve"/>
      <point x="175" y="211" type="line"/>
      <point x="178" y="217"/>
      <point x="184" y="225"/>
      <point x="187" y="231" type="curve" smooth="yes"/>
      <point x="196" y="248"/>
      <point x="200" y="264"/>
      <point x="206" y="278" type="curve" smooth="yes"/>
      <point x="213" y="296"/>
      <point x="218" y="312"/>
      <point x="229" y="328" type="curve"/>
      <point x="229" y="328"/>
      <point x="259" y="392"/>
      <point x="257" y="395" type="curve"/>
      <point x="254" y="397"/>
      <point x="262" y="405"/>
      <point x="262" y="407" type="curve"/>
      <point x="278" y="455"/>
      <point x="300" y="497"/>
      <point x="323" y="549" type="curve"/>
      <point x="326" y="557"/>
      <point x="333" y="558"/>
      <point x="336" y="568" type="curve"/>
      <point x="341" y="591"/>
      <point x="350" y="610"/>
      <point x="361" y="637" type="curve"/>
      <point x="371" y="650"/>
      <point x="381" y="671"/>
      <point x="375" y="679" type="curve"/>
      <point x="329" y="694"/>
      <point x="332" y="670"/>
      <point x="318" y="633" type="curve"/>
      <point x="313" y="616"/>
      <point x="305" y="600"/>
      <point x="298" y="583" type="curve"/>
      <point x="288" y="556"/>
      <point x="273" y="519"/>
      <point x="261" y="495" type="curve"/>
    </contour>
  </outline>
</glyph>
<glyph name="zero" format="1">
  <advance width="549"/>
  <unicode hex="0030"/>
  <outline>
    <contour>
      <point x="480" y="147"/>
      <point x="489" y="174"/>
      <point x="493" y="206" type="curve"/>
      <point x="493" y="211"/>
      <point x="490" y="212"/>
      <point x="491" y="218" type="curve"/>
      <point x="493" y="227"/>
      <point x="497" y="233"/>
      <point x="496" y="244" type="curve"/>
      <point x="492" y="248"/>
      <point x="493" y="257"/>
      <point x="493" y="266" type="curve"/>
      <point x="488" y="274"/>
      <point x="486" y="285"/>
      <point x="485" y="297" type="curve"/>
      <point x="478" y="307"/>
      <point x="477" y="320"/>
      <point x="472" y="332" type="curve"/>
      <point x="468" y="344"/>
      <point x="462" y="355"/>
      <point x="458" y="366" type="curve"/>
      <point x="450" y="375"/>
      <point x="446" y="387"/>
      <point x="438" y="395" type="curve" smooth="yes"/>
      <point x="423" y="411"/>
      <point x="406" y="425"/>
      <point x="390" y="441" type="curve"/>
      <point x="381" y="441"/>
      <point x="378" y="449"/>
      <point x="370" y="452" type="curve" smooth="yes"/>
      <point x="354" y="458"/>
      <point x="337" y="463"/>
      <point x="323" y="471" type="curve"/>
      <point x="310" y="470"/>
      <point x="297" y="475"/>
      <point x="286" y="471" type="curve"/>
      <point x="275" y="477"/>
      <point x="250" y="471"/>
      <point x="233" y="475" type="curve"/>
      <point x="223" y="473"/>
      <point x="212" y="472"/>
      <point x="204" y="467" type="curve"/>
      <point x="169" y="463"/>
      <point x="148" y="445"/>
      <point x="123" y="431" type="curve"/>
      <point x="113" y="421"/>
      <point x="105" y="411"/>
      <point x="94" y="403" type="curve"/>
      <point x="92" y="399"/>
      <point x="88" y="396"/>
      <point x="86" y="392" type="curve"/>
      <point x="82" y="390"/>
      <point x="77" y="388"/>
      <point x="74" y="385" type="curve"/>
      <point x="74" y="378"/>
      <point x="69" y="376"/>
      <point x="69" y="368" type="curve"/>
      <point x="60" y="360"/>
      <point x="58" y="345"/>
      <point x="50" y="335" type="curve"/>
      <point x="47" y="321"/>
      <point x="42" y="308"/>
      <point x="39" y="294" type="curve"/>
      <point x="40" y="285"/>
      <point x="36" y="281"/>
      <point x="37" y="272" type="curve"/>
      <point x="35" y="267"/>
      <point x="34" y="262"/>
      <point x="33" y="256" type="curve"/>
      <point x="32" y="219"/>
      <point x="40" y="191"/>
      <point x="45" y="160" type="curve"/>
      <point x="56" y="143"/>
      <point x="66" y="124"/>
      <point x="74" y="103" type="curve"/>
      <point x="80" y="101"/>
      <point x="80" y="92"/>
      <point x="86" y="89" type="curve"/>
      <point x="90" y="83"/>
      <point x="96" y="80"/>
      <point x="97" y="72" type="curve"/>
      <point x="111" y="65"/>
      <point x="120" y="53"/>
      <point x="130" y="43" type="curve"/>
      <point x="154" y="38"/>
      <point x="168" y="18"/>
      <point x="195" y="15" type="curve" smooth="yes"/>
      <point x="207" y="14"/>
      <point x="219" y="16"/>
      <point x="231" y="17" type="curve"/>
      <point x="235" y="17"/>
      <point x="240" y="15"/>
      <point x="244" y="15" type="curve" smooth="yes"/>
      <point x="254" y="15"/>
      <point x="272" y="7"/>
      <point x="285" y="11" type="curve"/>
      <point x="292" y="17"/>
      <point x="321" y="20"/>
      <point x="343" y="20" type="curve"/>
      <point x="366" y="31"/>
      <point x="386" y="33"/>
      <point x="393" y="39" type="curve" smooth="yes"/>
      <point x="400" y="45"/>
      <point x="421" y="58"/>
      <point x="427" y="59" type="curve"/>
      <point x="436" y="61"/>
      <point x="445" y="76"/>
      <point x="447" y="87" type="curve"/>
      <point x="454" y="100"/>
      <point x="467" y="115"/>
      <point x="468" y="124" type="curve"/>
    </contour>
    <contour>
      <point x="80" y="266" type="line"/>
      <point x="84" y="287"/>
      <point x="89" y="307"/>
      <point x="102" y="319" type="curve"/>
      <point x="102" y="327"/>
      <point x="106" y="331"/>
      <point x="107" y="338" type="curve"/>
      <point x="116" y="343"/>
      <point x="118" y="355"/>
      <point x="127" y="360" type="curve"/>
      <point x="132" y="370"/>
      <point x="141" y="374"/>
      <point x="146" y="384" type="curve"/>
      <point x="158" y="389"/>
      <point x="166" y="396"/>
      <point x="175" y="404" type="curve"/>
      <point x="185" y="407"/>
      <point x="191" y="413"/>
      <point x="200" y="417" type="curve"/>
      <point x="222" y="422"/>
      <point x="250" y="422"/>
      <point x="277" y="422" type="curve" smooth="yes"/>
      <point x="284" y="422"/>
      <point x="286" y="419"/>
      <point x="291" y="419" type="curve"/>
      <point x="306" y="423"/>
      <point x="317" y="415"/>
      <point x="334" y="417" type="curve"/>
      <point x="346" y="411"/>
      <point x="354" y="400"/>
      <point x="370" y="398" type="curve"/>
      <point x="386" y="381"/>
      <point x="400" y="363"/>
      <point x="416" y="346" type="curve"/>
      <point x="420" y="330"/>
      <point x="431" y="318"/>
      <point x="436" y="303" type="curve"/>
      <point x="442" y="288"/>
      <point x="444" y="271"/>
      <point x="447" y="251" type="curve" smooth="yes"/>
      <point x="453" y="216"/>
      <point x="436" y="189"/>
      <point x="428" y="162" type="curve"/>
      <point x="422" y="154"/>
      <point x="414" y="148"/>
      <point x="409" y="138" type="curve"/>
      <point x="404" y="130"/>
      <point x="394" y="126"/>
      <point x="390" y="116" type="curve"/>
      <point x="377" y="110"/>
      <point x="366" y="101"/>
      <point x="357" y="91" type="curve"/>
      <point x="342" y="85"/>
      <point x="329" y="77"/>
      <point x="316" y="69" type="curve"/>
      <point x="303" y="71"/>
      <point x="292" y="65"/>
      <point x="280" y="64" type="curve" smooth="yes"/>
      <point x="257" y="62"/>
      <point x="236" y="70"/>
      <point x="214" y="72" type="curve"/>
      <point x="205" y="75"/>
      <point x="198" y="81"/>
      <point x="186" y="81" type="curve"/>
      <point x="177" y="88"/>
      <point x="168" y="94"/>
      <point x="159" y="100" type="curve"/>
      <point x="149" y="105"/>
      <point x="142" y="113"/>
      <point x="132" y="117" type="curve"/>
      <point x="126" y="128"/>
      <point x="118" y="136"/>
      <point x="110" y="144" type="curve"/>
      <point x="106" y="159"/>
      <point x="96" y="167"/>
      <point x="93" y="182" type="curve"/>
      <point x="86" y="194"/>
      <point x="84" y="210"/>
      <point x="80" y="225" type="curve"/>
    </contour>
  </outline>
</glyph>
<glyph name="one" format="1">
  <advance width="269"/>
  <unicode hex="0031"/>
  <outline>
    <contour>
      <point x="186" y="-2" type="line"/>
      <point x="192" y="6" type="line"/>
      <point x="190" y="28"/>
      <point x="191" y="58"/>
      <point x="191" y="66" type="curve"/>
      <point x="192" y="75"/>
      <point x="191" y="99"/>
      <point x="191" y="99" type="curve" smooth="yes"/>
      <point x="191" y="99"/>
      <point x="187" y="132"/>
      <point x="191" y="147" type="curve"/>
      <point x="192" y="156"/>
      <point x="188" y="160"/>
      <point x="188" y="168" type="curve"/>
      <point x="189" y="178"/>
      <point x="190" y="189"/>
      <point x="186" y="196" type="curve"/>
      <point x="184" y="201"/>
      <point x="188" y="206"/>
      <point x="188" y="214" type="curve"/>
      <point x="185" y="216"/>
      <point x="187" y="224"/>
      <point x="184" y="226" type="curve"/>
      <point x="189" y="291"/>
      <point x="193" y="366"/>
      <point x="191" y="433" type="curve"/>
      <point x="183" y="442" type="line"/>
      <point x="150" y="450"/>
      <point x="85" y="445"/>
      <point x="72" y="445" type="curve"/>
      <point x="60" y="444"/>
      <point x="57" y="440"/>
      <point x="52" y="428" type="curve"/>
      <point x="52" y="414"/>
      <point x="55" y="406"/>
      <point x="55" y="396" type="curve"/>
      <point x="63" y="388"/>
      <point x="109" y="390"/>
      <point x="114" y="391" type="curve"/>
      <point x="118" y="391"/>
      <point x="141" y="396"/>
      <point x="143" y="388" type="curve"/>
      <point x="144" y="381"/>
      <point x="144" y="366"/>
      <point x="145" y="359" type="curve"/>
      <point x="143" y="350"/>
      <point x="145" y="348"/>
      <point x="145" y="338" type="curve"/>
      <point x="146" y="334"/>
      <point x="146" y="331"/>
      <point x="146" y="325" type="curve"/>
      <point x="147" y="316"/>
      <point x="146" y="315"/>
      <point x="145" y="308" type="curve"/>
      <point x="150" y="297"/>
      <point x="148" y="281"/>
      <point x="145" y="266" type="curve"/>
      <point x="145" y="261"/>
      <point x="149" y="259"/>
      <point x="148" y="253" type="curve"/>
      <point x="144" y="240"/>
      <point x="152" y="231"/>
      <point x="150" y="215" type="curve"/>
      <point x="152" y="210"/>
      <point x="146" y="190"/>
      <point x="148" y="179" type="curve"/>
      <point x="150" y="163" type="line"/>
      <point x="152" y="157"/>
      <point x="148" y="147"/>
      <point x="148" y="141" type="curve"/>
      <point x="149" y="133"/>
      <point x="148" y="124"/>
      <point x="150" y="119" type="curve"/>
      <point x="147" y="115"/>
      <point x="146" y="111"/>
      <point x="148" y="106" type="curve"/>
      <point x="151" y="105"/>
      <point x="148" y="79"/>
      <point x="149" y="72" type="curve"/>
      <point x="149" y="64"/>
      <point x="149" y="48"/>
      <point x="148" y="45" type="curve"/>
      <point x="148" y="42"/>
      <point x="146" y="26"/>
      <point x="147" y="12" type="curve"/>
      <point x="150" y="6"/>
      <point x="153" y="0"/>
      <point x="161" y="-2" type="curve"/>
    </contour>
  </outline>
</glyph>
<glyph name="two" format="1">
  <advance width="471"/>
  <unicode hex="0032"/>
  <outline>
    <contour>
      <point x="264" y="105" type="line"/>
      <point x="267" y="107"/>
      <point x="302" y="141"/>
      <point x="311" y="143" type="curve"/>
      <point x="319" y="151"/>
      <point x="328" y="157"/>
      <point x="336" y="165" type="curve"/>
      <point x="345" y="172"/>
      <point x="352" y="182"/>
      <point x="363" y="187" type="curve"/>
      <point x="367" y="200"/>
      <point x="378" y="207"/>
      <point x="382" y="220" type="curve"/>
      <point x="389" y="231"/>
      <point x="394" y="244"/>
      <point x="401" y="255" type="curve"/>
      <point x="404" y="284"/>
      <point x="405" y="313"/>
      <point x="396" y="337" type="curve"/>
      <point x="395" y="342"/>
      <point x="399" y="343"/>
      <point x="398" y="349" type="curve"/>
      <point x="388" y="359"/>
      <point x="382" y="373"/>
      <point x="380" y="392" type="curve"/>
      <point x="375" y="400"/>
      <point x="370" y="409"/>
      <point x="364" y="417" type="curve"/>
      <point x="359" y="420"/>
      <point x="355" y="425"/>
      <point x="349" y="428" type="curve"/>
      <point x="341" y="441"/>
      <point x="329" y="450"/>
      <point x="316" y="458" type="curve"/>
      <point x="314" y="462"/>
      <point x="271" y="471"/>
      <point x="251" y="475" type="curve" smooth="yes"/>
      <point x="245" y="476"/>
      <point x="243" y="472"/>
      <point x="237" y="472" type="curve" smooth="yes"/>
      <point x="201" y="472" type="line"/>
      <point x="181" y="467"/>
      <point x="160" y="464"/>
      <point x="149" y="452" type="curve"/>
      <point x="143" y="450"/>
      <point x="138" y="448"/>
      <point x="133" y="445" type="curve"/>
      <point x="127" y="442"/>
      <point x="124" y="436"/>
      <point x="119" y="433" type="curve"/>
      <point x="112" y="419"/>
      <point x="103" y="407"/>
      <point x="92" y="398" type="curve"/>
      <point x="90" y="391"/>
      <point x="87" y="386"/>
      <point x="82" y="382" type="curve"/>
      <point x="70" y="357"/>
      <point x="61" y="311"/>
      <point x="59" y="303" type="curve"/>
      <point x="62" y="289"/>
      <point x="64" y="273"/>
      <point x="65" y="256" type="curve"/>
      <point x="69" y="241"/>
      <point x="75" y="227"/>
      <point x="79" y="212" type="curve"/>
      <point x="84" y="207"/>
      <point x="102" y="187"/>
      <point x="108" y="184" type="curve"/>
      <point x="116" y="183"/>
      <point x="114" y="193"/>
      <point x="122" y="193" type="curve"/>
      <point x="128" y="196"/>
      <point x="137" y="197"/>
      <point x="139" y="204" type="curve"/>
      <point x="142" y="209"/>
      <point x="134" y="215"/>
      <point x="131" y="218" type="curve"/>
      <point x="131" y="226"/>
      <point x="120" y="237"/>
      <point x="117" y="240" type="curve"/>
      <point x="117" y="245"/>
      <point x="110" y="243"/>
      <point x="111" y="248" type="curve"/>
      <point x="112" y="255"/>
      <point x="108" y="257"/>
      <point x="108" y="262" type="curve"/>
      <point x="107" y="282"/>
      <point x="106" y="294"/>
      <point x="108" y="313" type="curve"/>
      <point x="111" y="321"/>
      <point x="117" y="328"/>
      <point x="117" y="340" type="curve"/>
      <point x="123" y="350"/>
      <point x="131" y="358"/>
      <point x="134" y="371" type="curve"/>
      <point x="149" y="378"/>
      <point x="156" y="393"/>
      <point x="171" y="400" type="curve"/>
      <point x="178" y="404"/>
      <point x="187" y="405"/>
      <point x="196" y="407" type="curve"/>
      <point x="205" y="410"/>
      <point x="213" y="413"/>
      <point x="221" y="415" type="curve"/>
      <point x="228" y="416"/>
      <point x="230" y="413"/>
      <point x="237" y="414" type="curve"/>
      <point x="252" y="417"/>
      <point x="262" y="411"/>
      <point x="278" y="411" type="curve"/>
      <point x="291" y="402"/>
      <point x="306" y="395"/>
      <point x="319" y="385" type="curve"/>
      <point x="325" y="375"/>
      <point x="334" y="369"/>
      <point x="338" y="357" type="curve"/>
      <point x="345" y="348"/>
      <point x="347" y="334"/>
      <point x="352" y="322" type="curve"/>
      <point x="351" y="312"/>
      <point x="355" y="307"/>
      <point x="353" y="297" type="curve"/>
      <point x="354" y="283"/>
      <point x="345" y="274"/>
      <point x="349" y="261" type="curve"/>
      <point x="344" y="254"/>
      <point x="339" y="248"/>
      <point x="336" y="239" type="curve"/>
      <point x="326" y="227"/>
      <point x="314" y="218"/>
      <point x="308" y="203" type="curve"/>
      <point x="297" y="198"/>
      <point x="292" y="188"/>
      <point x="286" y="179" type="curve"/>
      <point x="276" y="178"/>
      <point x="274" y="169"/>
      <point x="265" y="168" type="curve"/>
      <point x="263" y="162"/>
      <point x="243" y="143"/>
      <point x="235" y="140" type="curve"/>
      <point x="232" y="135"/>
      <point x="227" y="131"/>
      <point x="224" y="125" type="curve"/>
      <point x="212" y="121"/>
      <point x="205" y="111"/>
      <point x="196" y="103" type="curve" smooth="yes"/>
      <point x="187" y="95"/>
      <point x="165" y="74"/>
      <point x="160" y="75" type="curve"/>
      <point x="155" y="70"/>
      <point x="153" y="64"/>
      <point x="147" y="61" type="curve"/>
      <point x="133" y="53"/>
      <point x="122" y="42"/>
      <point x="106" y="37" type="curve"/>
      <point x="103" y="32"/>
      <point x="98" y="30"/>
      <point x="97" y="24" type="curve"/>
      <point x="94" y="21"/>
      <point x="87" y="15"/>
      <point x="90" y="10" type="curve"/>
      <point x="93" y="-4"/>
      <point x="109" y="-4"/>
      <point x="125" y="-4" type="curve"/>
      <point x="137" y="4"/>
      <point x="186" y="4"/>
      <point x="190" y="1" type="curve"/>
      <point x="211" y="3"/>
      <point x="243" y="4"/>
      <point x="262" y="-1" type="curve"/>
      <point x="268" y="0"/>
      <point x="333" y="1"/>
      <point x="358" y="1" type="curve"/>
      <point x="366" y="0"/>
      <point x="369" y="-6"/>
      <point x="377" y="-7" type="curve"/>
      <point x="389" y="-5"/>
      <point x="405" y="-6"/>
      <point x="420" y="-6" type="curve"/>
      <point x="426" y="0"/>
      <point x="428" y="8"/>
      <point x="429" y="18" type="curve"/>
      <point x="425" y="27"/>
      <point x="425" y="40"/>
      <point x="423" y="51" type="curve"/>
      <point x="415" y="55"/>
      <point x="348" y="59"/>
      <point x="327" y="54" type="curve"/>
      <point x="284" y="61"/>
      <point x="242" y="43"/>
      <point x="202" y="51" type="curve"/>
      <point x="209" y="59"/>
      <point x="218" y="65"/>
      <point x="226" y="72" type="curve"/>
      <point x="233" y="79"/>
      <point x="241" y="86"/>
      <point x="251" y="91" type="curve"/>
    </contour>
  </outline>
</glyph>
<glyph name="three" format="1">
  <advance width="455"/>
  <unicode hex="0033"/>
  <outline>
    <contour>
      <point x="62" y="266" type="line"/>
      <point x="78" y="265"/>
      <point x="102" y="259"/>
      <point x="112" y="269" type="curve"/>
      <point x="112" y="283"/>
      <point x="108" y="292"/>
      <point x="108" y="307" type="curve"/>
      <point x="110" y="314"/>
      <point x="113" y="320"/>
      <point x="117" y="326" type="curve"/>
      <point x="118" y="344"/>
      <point x="128" y="352"/>
      <point x="133" y="366" type="curve"/>
      <point x="152" y="383"/>
      <point x="173" y="398"/>
      <point x="199" y="407" type="curve"/>
      <point x="206" y="403"/>
      <point x="235" y="408"/>
      <point x="243" y="407" type="curve"/>
      <point x="254" y="403"/>
      <point x="260" y="406"/>
      <point x="278" y="396" type="curve" smooth="yes"/>
      <point x="296" y="386"/>
      <point x="296" y="379"/>
      <point x="303" y="378" type="curve"/>
      <point x="320" y="362"/>
      <point x="331" y="339"/>
      <point x="341" y="316" type="curve"/>
      <point x="347" y="295"/>
      <point x="342" y="275"/>
      <point x="338" y="256" type="curve"/>
      <point x="326" y="240"/>
      <point x="316" y="224"/>
      <point x="301" y="210" type="curve"/>
      <point x="290" y="206"/>
      <point x="282" y="199"/>
      <point x="267" y="198" type="curve"/>
      <point x="259" y="197"/>
      <point x="237" y="191"/>
      <point x="232" y="185" type="curve"/>
      <point x="233" y="172"/>
      <point x="229" y="163"/>
      <point x="229" y="149" type="curve"/>
      <point x="233" y="145"/>
      <point x="236" y="139"/>
      <point x="243" y="138" type="curve"/>
      <point x="249" y="135"/>
      <point x="310" y="135"/>
      <point x="335" y="111" type="curve" smooth="yes"/>
      <point x="351" y="96"/>
      <point x="349" y="96"/>
      <point x="347" y="98" type="curve"/>
      <point x="361" y="75"/>
      <point x="377" y="53"/>
      <point x="379" y="20" type="curve"/>
      <point x="379" y="8"/>
      <point x="378" y="-4"/>
      <point x="379" y="-18" type="curve"/>
      <point x="374" y="-36"/>
      <point x="365" y="-49"/>
      <point x="360" y="-67" type="curve"/>
      <point x="351" y="-74"/>
      <point x="344" y="-84"/>
      <point x="333" y="-89" type="curve"/>
      <point x="328" y="-95"/>
      <point x="325" y="-102"/>
      <point x="319" y="-106" type="curve"/>
      <point x="303" y="-119"/>
      <point x="278" y="-122"/>
      <point x="256" y="-128" type="curve"/>
      <point x="251" y="-129"/>
      <point x="208" y="-133"/>
      <point x="193" y="-128" type="curve" smooth="yes"/>
      <point x="177" y="-123"/>
      <point x="163" y="-117"/>
      <point x="150" y="-108" type="curve" smooth="yes"/>
      <point x="147" y="-106"/>
      <point x="145" y="-103"/>
      <point x="142" y="-100" type="curve"/>
      <point x="133" y="-92"/>
      <point x="122" y="-88"/>
      <point x="114" y="-80" type="curve"/>
      <point x="110" y="-66"/>
      <point x="102" y="-56"/>
      <point x="95" y="-45" type="curve"/>
      <point x="91" y="-29"/>
      <point x="85" y="-15"/>
      <point x="86" y="6" type="curve"/>
      <point x="81" y="10"/>
      <point x="79" y="16"/>
      <point x="71" y="18" type="curve"/>
      <point x="54" y="18"/>
      <point x="46" y="9"/>
      <point x="37" y="1" type="curve"/>
      <point x="33" y="-10"/>
      <point x="31" y="-21"/>
      <point x="34" y="-34" type="curve"/>
      <point x="37" y="-42"/>
      <point x="40" y="-51"/>
      <point x="41" y="-61" type="curve"/>
      <point x="44" y="-67"/>
      <point x="49" y="-70"/>
      <point x="51" y="-76" type="curve"/>
      <point x="50" y="-84"/>
      <point x="54" y="-86"/>
      <point x="54" y="-92" type="curve"/>
      <point x="60" y="-99"/>
      <point x="64" y="-108"/>
      <point x="71" y="-113" type="curve"/>
      <point x="75" y="-123"/>
      <point x="84" y="-128"/>
      <point x="87" y="-138" type="curve"/>
      <point x="94" y="-140"/>
      <point x="99" y="-144"/>
      <point x="104" y="-147" type="curve"/>
      <point x="107" y="-161"/>
      <point x="119" y="-166"/>
      <point x="127" y="-174" type="curve"/>
      <point x="135" y="-175"/>
      <point x="141" y="-179"/>
      <point x="152" y="-177" type="curve"/>
      <point x="166" y="-185"/>
      <point x="187" y="-188"/>
      <point x="208" y="-188" type="curve"/>
      <point x="215" y="-187"/>
      <point x="220" y="-184"/>
      <point x="227" y="-184" type="curve"/>
      <point x="234" y="-183"/>
      <point x="239" y="-184"/>
      <point x="245" y="-185" type="curve"/>
      <point x="262" y="-181"/>
      <point x="279" y="-177"/>
      <point x="298" y="-176" type="curve"/>
      <point x="315" y="-170"/>
      <point x="330" y="-164"/>
      <point x="346" y="-157" type="curve"/>
      <point x="351" y="-152"/>
      <point x="388" y="-131"/>
      <point x="390" y="-121" type="curve"/>
      <point x="396" y="-119"/>
      <point x="397" y="-114"/>
      <point x="399" y="-105" type="curve"/>
      <point x="407" y="-98"/>
      <point x="407" y="-84"/>
      <point x="415" y="-78" type="curve"/>
      <point x="414" y="-67"/>
      <point x="420" y="-57"/>
      <point x="423" y="-48" type="curve" smooth="yes"/>
      <point x="426" y="-38"/>
      <point x="426" y="-27"/>
      <point x="431" y="-18" type="curve"/>
      <point x="430" y="-10"/>
      <point x="432" y="-6"/>
      <point x="432" y="1" type="curve" smooth="yes"/>
      <point x="432" y="3"/>
      <point x="430" y="3"/>
      <point x="429" y="6" type="curve"/>
      <point x="425" y="23"/>
      <point x="423" y="51"/>
      <point x="421" y="61" type="curve" smooth="yes"/>
      <point x="419" y="71"/>
      <point x="399" y="109"/>
      <point x="394" y="116" type="curve" smooth="yes"/>
      <point x="389" y="123"/>
      <point x="378" y="142"/>
      <point x="369" y="149" type="curve" smooth="yes"/>
      <point x="360" y="156"/>
      <point x="339" y="161"/>
      <point x="324" y="166" type="curve"/>
      <point x="322" y="172"/>
      <point x="316" y="173"/>
      <point x="316" y="173" type="curve" smooth="yes"/>
      <point x="316" y="173"/>
      <point x="330" y="182"/>
      <point x="338" y="185" type="curve"/>
      <point x="348" y="195"/>
      <point x="356" y="207"/>
      <point x="369" y="214" type="curve"/>
      <point x="371" y="223"/>
      <point x="376" y="230"/>
      <point x="382" y="236" type="curve"/>
      <point x="383" y="251"/>
      <point x="389" y="263"/>
      <point x="391" y="278" type="curve"/>
      <point x="390" y="312"/>
      <point x="380" y="337"/>
      <point x="376" y="368" type="curve"/>
      <point x="368" y="375"/>
      <point x="364" y="384"/>
      <point x="360" y="393" type="curve"/>
      <point x="354" y="402"/>
      <point x="335" y="425"/>
      <point x="328" y="425" type="curve"/>
      <point x="314" y="440"/>
      <point x="293" y="449"/>
      <point x="273" y="459" type="curve"/>
      <point x="262" y="458"/>
      <point x="256" y="461"/>
      <point x="248" y="463" type="curve"/>
      <point x="239" y="464"/>
      <point x="231" y="461"/>
      <point x="223" y="461" type="curve" smooth="yes"/>
      <point x="218" y="461"/>
      <point x="214" y="463"/>
      <point x="210" y="463" type="curve"/>
      <point x="200" y="462"/>
      <point x="190" y="455"/>
      <point x="180" y="458" type="curve"/>
      <point x="171" y="454"/>
      <point x="161" y="450"/>
      <point x="150" y="448" type="curve"/>
      <point x="146" y="446"/>
      <point x="142" y="442"/>
      <point x="136" y="441" type="curve"/>
      <point x="129" y="431"/>
      <point x="121" y="423"/>
      <point x="109" y="419" type="curve"/>
      <point x="104" y="411"/>
      <point x="100" y="403"/>
      <point x="92" y="400" type="curve"/>
      <point x="90" y="393"/>
      <point x="87" y="387"/>
      <point x="84" y="381" type="curve" smooth="yes"/>
      <point x="81" y="375"/>
      <point x="76" y="368"/>
      <point x="75" y="363" type="curve"/>
      <point x="73" y="359"/>
      <point x="74" y="354"/>
      <point x="73" y="349" type="curve"/>
      <point x="72" y="345"/>
      <point x="69" y="341"/>
      <point x="68" y="337" type="curve"/>
      <point x="67" y="331"/>
      <point x="66" y="324"/>
      <point x="67" y="318" type="curve"/>
      <point x="64" y="312"/>
      <point x="62" y="306"/>
      <point x="60" y="299" type="curve"/>
    </contour>
    <contour>
      <point x="347" y="98" type="line"/>
      <point x="346" y="99"/>
      <point x="345" y="100"/>
      <point x="347" y="99" type="curve"/>
    </contour>
  </outline>
</glyph>
<glyph name="four" format="1">
  <advance width="500"/>
  <unicode hex="0034"/>
  <outline>
    <contour>
      <point x="238" y="363" type="line"/>
      <point x="234" y="351"/>
      <point x="228" y="340"/>
      <point x="224" y="329" type="curve"/>
      <point x="213" y="317"/>
      <point x="203" y="304"/>
      <point x="196" y="289" type="curve"/>
      <point x="192" y="288"/>
      <point x="193" y="282"/>
      <point x="189" y="280" type="curve"/>
      <point x="181" y="270" type="line"/>
      <point x="179" y="261"/>
      <point x="173" y="256"/>
      <point x="167" y="250" type="curve"/>
      <point x="160" y="235"/>
      <point x="150" y="221"/>
      <point x="142" y="207" type="curve"/>
      <point x="139" y="203"/>
      <point x="138" y="200"/>
      <point x="136" y="196" type="curve"/>
      <point x="128" y="186"/>
      <point x="121" y="176"/>
      <point x="112" y="168" type="curve"/>
      <point x="108" y="149"/>
      <point x="95" y="141"/>
      <point x="88" y="125" type="curve"/>
      <point x="81" y="122"/>
      <point x="82" y="110"/>
      <point x="74" y="106" type="curve"/>
      <point x="71" y="98"/>
      <point x="65" y="94"/>
      <point x="63" y="84" type="curve"/>
      <point x="53" y="76"/>
      <point x="44" y="68"/>
      <point x="36" y="58" type="curve"/>
      <point x="36" y="42"/>
      <point x="31" y="32"/>
      <point x="28" y="18" type="curve"/>
      <point x="32" y="6"/>
      <point x="47" y="5"/>
      <point x="60" y="2" type="curve"/>
      <point x="80" y="2"/>
      <point x="97" y="5"/>
      <point x="118" y="4" type="curve"/>
      <point x="124" y="4"/>
      <point x="125" y="10"/>
      <point x="132" y="9" type="curve"/>
      <point x="141" y="10"/>
      <point x="144" y="6"/>
      <point x="151" y="6" type="curve"/>
      <point x="158" y="5"/>
      <point x="160" y="10"/>
      <point x="167" y="9" type="curve"/>
      <point x="174" y="10"/>
      <point x="175" y="5"/>
      <point x="181" y="6" type="curve"/>
      <point x="204" y="9"/>
      <point x="223" y="4"/>
      <point x="241" y="4" type="curve" smooth="yes"/>
      <point x="246" y="4"/>
      <point x="250" y="5"/>
      <point x="255" y="6" type="curve"/>
      <point x="261" y="6"/>
      <point x="266" y="4"/>
      <point x="271" y="4" type="curve" smooth="yes"/>
      <point x="276" y="4"/>
      <point x="280" y="7"/>
      <point x="285" y="7" type="curve"/>
      <point x="285" y="7"/>
      <point x="289" y="5"/>
      <point x="292" y="6" type="curve"/>
      <point x="304" y="7"/>
      <point x="317" y="12"/>
      <point x="331" y="7" type="curve"/>
      <point x="340" y="-3"/>
      <point x="332" y="-24"/>
      <point x="336" y="-37" type="curve"/>
      <point x="335" y="-42"/>
      <point x="333" y="-46"/>
      <point x="333" y="-51" type="curve"/>
      <point x="334" y="-57"/>
      <point x="337" y="-61"/>
      <point x="337" y="-69" type="curve"/>
      <point x="335" y="-80"/>
      <point x="332" y="-90"/>
      <point x="334" y="-102" type="curve"/>
      <point x="324" y="-116"/>
      <point x="331" y="-175"/>
      <point x="334" y="-180" type="curve"/>
      <point x="349" y="-181"/>
      <point x="378" y="-185"/>
      <point x="383" y="-182" type="curve"/>
      <point x="388" y="-183"/>
      <point x="389" y="-180"/>
      <point x="393" y="-179" type="curve"/>
      <point x="394" y="-175"/>
      <point x="385" y="-142"/>
      <point x="383" y="-135" type="curve"/>
      <point x="382" y="-124"/>
      <point x="380" y="-114"/>
      <point x="383" y="-103" type="curve"/>
      <point x="381" y="-98"/>
      <point x="379" y="-94"/>
      <point x="378" y="-87" type="curve"/>
      <point x="382" y="-60"/>
      <point x="381" y="-37"/>
      <point x="378" y="-9" type="curve"/>
      <point x="382" y="0"/>
      <point x="385" y="9"/>
      <point x="394" y="12" type="curve"/>
      <point x="410" y="12"/>
      <point x="421" y="7"/>
      <point x="438" y="9" type="curve"/>
      <point x="448" y="4"/>
      <point x="475" y="12"/>
      <point x="475" y="12" type="curve" smooth="yes"/>
      <point x="475" y="12"/>
      <point x="481" y="45"/>
      <point x="476" y="56" type="curve"/>
      <point x="467" y="62"/>
      <point x="455" y="64"/>
      <point x="443" y="65" type="curve"/>
      <point x="434" y="64"/>
      <point x="421" y="60"/>
      <point x="411" y="64" type="curve"/>
      <point x="404" y="61"/>
      <point x="395" y="58"/>
      <point x="386" y="61" type="curve"/>
      <point x="378" y="69"/>
      <point x="383" y="82"/>
      <point x="383" y="94" type="curve" smooth="yes"/>
      <point x="383" y="104"/>
      <point x="381" y="116"/>
      <point x="385" y="125" type="curve"/>
      <point x="382" y="135"/>
      <point x="382" y="148"/>
      <point x="380" y="158" type="curve"/>
      <point x="385" y="171"/>
      <point x="383" y="189"/>
      <point x="380" y="203" type="curve"/>
      <point x="385" y="220"/>
      <point x="381" y="241"/>
      <point x="382" y="262" type="curve" smooth="yes"/>
      <point x="383" y="289"/>
      <point x="383" y="317"/>
      <point x="382" y="343" type="curve"/>
      <point x="382" y="348"/>
      <point x="386" y="351"/>
      <point x="385" y="359" type="curve"/>
      <point x="379" y="376"/>
      <point x="381" y="405"/>
      <point x="385" y="423" type="curve"/>
      <point x="384" y="430"/>
      <point x="378" y="431"/>
      <point x="378" y="439" type="curve"/>
      <point x="387" y="460"/>
      <point x="383" y="487"/>
      <point x="383" y="508" type="curve" smooth="yes"/>
      <point x="383" y="521"/>
      <point x="389" y="537"/>
      <point x="377" y="545" type="curve"/>
      <point x="361" y="545"/>
      <point x="357" y="534"/>
      <point x="350" y="526" type="curve"/>
      <point x="341" y="519"/>
      <point x="335" y="509"/>
      <point x="326" y="502" type="curve"/>
      <point x="326" y="495"/>
      <point x="329" y="495"/>
      <point x="326" y="489" type="curve" smooth="yes"/>
      <point x="324" y="485"/>
      <point x="321" y="483"/>
      <point x="318" y="478" type="curve"/>
      <point x="316" y="473"/>
      <point x="314" y="465"/>
      <point x="312" y="463" type="curve" smooth="yes"/>
      <point x="311" y="462"/>
      <point x="312" y="461"/>
      <point x="311" y="459" type="curve"/>
      <point x="306" y="454"/>
      <point x="300" y="451"/>
      <point x="296" y="445" type="curve"/>
      <point x="295" y="444"/>
      <point x="296" y="442"/>
      <point x="295" y="441" type="curve"/>
      <point x="292" y="436"/>
      <point x="289" y="433"/>
      <point x="290" y="426" type="curve"/>
      <point x="278" y="417"/>
      <point x="272" y="402"/>
      <point x="260" y="392" type="curve"/>
      <point x="259" y="385"/>
      <point x="255" y="381"/>
      <point x="254" y="374" type="curve"/>
    </contour>
    <contour>
      <point x="337" y="203" type="line"/>
      <point x="338" y="195"/>
      <point x="335" y="192"/>
      <point x="334" y="187" type="curve"/>
      <point x="333" y="144"/>
      <point x="338" y="104"/>
      <point x="331" y="64" type="curve"/>
      <point x="322" y="59"/>
      <point x="311" y="61"/>
      <point x="300" y="61" type="curve"/>
      <point x="288" y="60"/>
      <point x="276" y="58"/>
      <point x="265" y="59" type="curve"/>
      <point x="259" y="59"/>
      <point x="256" y="62"/>
      <point x="251" y="62" type="curve"/>
      <point x="240" y="60"/>
      <point x="227" y="61"/>
      <point x="214" y="61" type="curve"/>
      <point x="203" y="60"/>
      <point x="191" y="60"/>
      <point x="183" y="58" type="curve"/>
      <point x="177" y="60"/>
      <point x="169" y="59"/>
      <point x="164" y="62" type="curve"/>
      <point x="151" y="57"/>
      <point x="133" y="58"/>
      <point x="118" y="59" type="curve"/>
      <point x="109" y="65"/>
      <point x="108" y="82"/>
      <point x="118" y="87" type="curve"/>
      <point x="120" y="93"/>
      <point x="125" y="95"/>
      <point x="128" y="100" type="curve"/>
      <point x="134" y="109"/>
      <point x="139" y="118"/>
      <point x="148" y="124" type="curve"/>
      <point x="162" y="156"/>
      <point x="190" y="173"/>
      <point x="202" y="206" type="curve"/>
      <point x="206" y="208"/>
      <point x="209" y="211"/>
      <point x="213" y="214" type="curve"/>
      <point x="218" y="226"/>
      <point x="227" y="237"/>
      <point x="233" y="248" type="curve" smooth="yes"/>
      <point x="240" y="260"/>
      <point x="246" y="272"/>
      <point x="254" y="283" type="curve" smooth="yes"/>
      <point x="259" y="290"/>
      <point x="263" y="298"/>
      <point x="270" y="303" type="curve"/>
      <point x="273" y="318"/>
      <point x="284" y="325"/>
      <point x="287" y="340" type="curve"/>
      <point x="293" y="344"/>
      <point x="298" y="350"/>
      <point x="303" y="355" type="curve"/>
      <point x="315" y="381" type="line"/>
      <point x="322" y="384"/>
      <point x="325" y="400"/>
      <point x="331" y="398" type="curve"/>
      <point x="337" y="400"/>
      <point x="333" y="392"/>
      <point x="334" y="389" type="curve"/>
      <point x="336" y="387"/>
      <point x="336" y="383"/>
      <point x="336" y="379" type="curve" smooth="yes"/>
      <point x="336" y="329"/>
      <point x="334" y="287"/>
      <point x="336" y="242" type="curve"/>
      <point x="334" y="232"/>
      <point x="333" y="220"/>
      <point x="329" y="212" type="curve"/>
    </contour>
  </outline>
</glyph>
<glyph name="five" format="1">
  <advance width="475"/>
  <unicode hex="0035"/>
  <outline>
    <contour>
      <point x="403" y="-80" type="line"/>
      <point x="403" y="-71"/>
      <point x="418" y="-28"/>
      <point x="418" y="-20" type="curve"/>
      <point x="421" y="-13"/>
      <point x="420" y="-5"/>
      <point x="422" y="2" type="curve"/>
      <point x="426" y="28" type="line"/>
      <point x="423" y="51"/>
      <point x="413" y="67"/>
      <point x="409" y="89" type="curve"/>
      <point x="403" y="96"/>
      <point x="400" y="107"/>
      <point x="395" y="116" type="curve"/>
      <point x="394" y="127"/>
      <point x="389" y="133"/>
      <point x="388" y="144" type="curve"/>
      <point x="383" y="151"/>
      <point x="376" y="156"/>
      <point x="371" y="163" type="curve"/>
      <point x="366" y="175"/>
      <point x="358" y="183"/>
      <point x="352" y="195" type="curve"/>
      <point x="348" y="197"/>
      <point x="343" y="200"/>
      <point x="340" y="203" type="curve"/>
      <point x="335" y="205"/>
      <point x="331" y="207"/>
      <point x="329" y="212" type="curve"/>
      <point x="318" y="215"/>
      <point x="317" y="228"/>
      <point x="306" y="231" type="curve"/>
      <point x="298" y="235"/>
      <point x="279" y="235"/>
      <point x="269" y="233" type="curve"/>
      <point x="261" y="236"/>
      <point x="254" y="240"/>
      <point x="242" y="239" type="curve"/>
      <point x="237" y="241"/>
      <point x="200" y="235"/>
      <point x="190" y="233" type="curve"/>
      <point x="180" y="230"/>
      <point x="150" y="225"/>
      <point x="150" y="225" type="curve" smooth="yes"/>
      <point x="150" y="225"/>
      <point x="157" y="240"/>
      <point x="155" y="245" type="curve" smooth="yes"/>
      <point x="152" y="252"/>
      <point x="160" y="261"/>
      <point x="161" y="269" type="curve"/>
      <point x="163" y="279"/>
      <point x="169" y="284"/>
      <point x="169" y="296" type="curve"/>
      <point x="173" y="300"/>
      <point x="175" y="307"/>
      <point x="179" y="311" type="curve"/>
      <point x="178" y="318"/>
      <point x="180" y="320"/>
      <point x="180" y="326" type="curve"/>
      <point x="187" y="336"/>
      <point x="187" y="351"/>
      <point x="191" y="363" type="curve"/>
      <point x="195" y="369"/>
      <point x="194" y="377"/>
      <point x="196" y="384" type="curve"/>
      <point x="196" y="384"/>
      <point x="199" y="386"/>
      <point x="199" y="387" type="curve"/>
      <point x="201" y="393"/>
      <point x="198" y="400"/>
      <point x="204" y="401" type="curve"/>
      <point x="216" y="404"/>
      <point x="229" y="404"/>
      <point x="240" y="407" type="curve"/>
      <point x="264" y="408"/>
      <point x="291" y="406"/>
      <point x="313" y="409" type="curve"/>
      <point x="325" y="404"/>
      <point x="337" y="408"/>
      <point x="347" y="407" type="curve"/>
      <point x="382" y="407" type="line"/>
      <point x="395" y="408"/>
      <point x="409" y="404"/>
      <point x="420" y="409" type="curve"/>
      <point x="423" y="416"/>
      <point x="429" y="420"/>
      <point x="429" y="430" type="curve"/>
      <point x="430" y="438"/>
      <point x="426" y="443"/>
      <point x="423" y="448" type="curve"/>
      <point x="406" y="458"/>
      <point x="385" y="456"/>
      <point x="365" y="455" type="curve"/>
      <point x="357" y="454"/>
      <point x="349" y="452"/>
      <point x="341" y="452" type="curve"/>
      <point x="330" y="453" type="line"/>
      <point x="317" y="453" type="line" smooth="yes"/>
      <point x="303" y="453"/>
      <point x="288" y="455"/>
      <point x="278" y="455" type="curve" smooth="yes"/>
      <point x="270" y="455"/>
      <point x="262" y="452"/>
      <point x="254" y="452" type="curve"/>
      <point x="225" y="450"/>
      <point x="199" y="453"/>
      <point x="174" y="452" type="curve"/>
      <point x="167" y="444"/>
      <point x="164" y="431"/>
      <point x="163" y="417" type="curve"/>
      <point x="156" y="408"/>
      <point x="157" y="393"/>
      <point x="150" y="384" type="curve"/>
      <point x="150" y="369"/>
      <point x="142" y="362"/>
      <point x="141" y="348" type="curve"/>
      <point x="138" y="344"/>
      <point x="134" y="341"/>
      <point x="133" y="335" type="curve"/>
      <point x="130" y="332"/>
      <point x="132" y="326"/>
      <point x="131" y="321" type="curve"/>
      <point x="122" y="312"/>
      <point x="124" y="292"/>
      <point x="120" y="278" type="curve"/>
      <point x="121" y="271"/>
      <point x="112" y="251"/>
      <point x="111" y="244" type="curve"/>
      <point x="112" y="233"/>
      <point x="106" y="229"/>
      <point x="105" y="220" type="curve"/>
      <point x="101" y="213"/>
      <point x="102" y="201"/>
      <point x="97" y="196" type="curve"/>
      <point x="96" y="178"/>
      <point x="82" y="164"/>
      <point x="86" y="147" type="curve"/>
      <point x="97" y="143"/>
      <point x="100" y="158"/>
      <point x="109" y="160" type="curve" smooth="yes"/>
      <point x="114" y="161"/>
      <point x="118" y="163"/>
      <point x="124" y="163" type="curve"/>
      <point x="129" y="167"/>
      <point x="132" y="174"/>
      <point x="138" y="177" type="curve"/>
      <point x="150" y="180"/>
      <point x="165" y="186"/>
      <point x="165" y="186" type="curve" smooth="yes"/>
      <point x="165" y="186"/>
      <point x="185" y="191"/>
      <point x="195" y="188" type="curve"/>
      <point x="203" y="191"/>
      <point x="215" y="190"/>
      <point x="223" y="193" type="curve"/>
      <point x="234" y="188"/>
      <point x="265" y="188"/>
      <point x="265" y="188" type="curve" smooth="yes"/>
      <point x="265" y="188"/>
      <point x="279" y="178"/>
      <point x="288" y="174" type="curve"/>
      <point x="296" y="170"/>
      <point x="303" y="164"/>
      <point x="313" y="162" type="curve"/>
      <point x="320" y="153"/>
      <point x="330" y="147"/>
      <point x="336" y="138" type="curve"/>
      <point x="339" y="134"/>
      <point x="341" y="128"/>
      <point x="341" y="122" type="curve"/>
      <point x="355" y="114"/>
      <point x="359" y="95"/>
      <point x="366" y="80" type="curve"/>
      <point x="363" y="72"/>
      <point x="366" y="62"/>
      <point x="368" y="54" type="curve"/>
      <point x="367" y="49"/>
      <point x="364" y="45"/>
      <point x="363" y="39" type="curve"/>
      <point x="363" y="36"/>
      <point x="366" y="34"/>
      <point x="366" y="31" type="curve"/>
      <point x="367" y="23"/>
      <point x="363" y="18"/>
      <point x="362" y="13" type="curve"/>
      <point x="357" y="1"/>
      <point x="355" y="-9"/>
      <point x="347" y="-17" type="curve"/>
      <point x="348" y="-23"/>
      <point x="348" y="-29"/>
      <point x="346" y="-34" type="curve"/>
      <point x="340" y="-45"/>
      <point x="325" y="-47"/>
      <point x="324" y="-62" type="curve"/>
      <point x="306" y="-67"/>
      <point x="303" y="-85"/>
      <point x="291" y="-95" type="curve"/>
      <point x="279" y="-99"/>
      <point x="272" y="-107"/>
      <point x="259" y="-110" type="curve"/>
      <point x="236" y="-110"/>
      <point x="214" y="-116"/>
      <point x="190" y="-111" type="curve"/>
      <point x="183" y="-109"/>
      <point x="180" y="-103"/>
      <point x="172" y="-102" type="curve"/>
      <point x="164" y="-102"/>
      <point x="158" y="-101"/>
      <point x="150" y="-100" type="curve"/>
      <point x="143" y="-96"/>
      <point x="138" y="-89"/>
      <point x="131" y="-84" type="curve"/>
      <point x="119" y="-83"/>
      <point x="114" y="-76"/>
      <point x="105" y="-72" type="curve"/>
      <point x="100" y="-64"/>
      <point x="93" y="-57"/>
      <point x="90" y="-47" type="curve"/>
      <point x="86" y="-41"/>
      <point x="80" y="-36"/>
      <point x="76" y="-29" type="curve"/>
      <point x="76" y="-20"/>
      <point x="72" y="-14"/>
      <point x="68" y="-9" type="curve"/>
      <point x="64" y="-8"/>
      <point x="62" y="-6"/>
      <point x="57" y="-6" type="curve"/>
      <point x="48" y="-5"/>
      <point x="44" y="-10"/>
      <point x="38" y="-13" type="curve" smooth="yes"/>
      <point x="32" y="-16"/>
      <point x="24" y="-18"/>
      <point x="20" y="-23" type="curve"/>
      <point x="15" y="-58"/>
      <point x="42" y="-74"/>
      <point x="49" y="-103" type="curve"/>
      <point x="59" y="-113"/>
      <point x="76" y="-117"/>
      <point x="81" y="-132" type="curve"/>
      <point x="106" y="-141"/>
      <point x="132" y="-150"/>
      <point x="155" y="-162" type="curve"/>
      <point x="177" y="-159"/>
      <point x="194" y="-166"/>
      <point x="212" y="-166" type="curve" smooth="yes"/>
      <point x="214" y="-166"/>
      <point x="217" y="-165"/>
      <point x="218" y="-165" type="curve" smooth="yes"/>
      <point x="221" y="-165"/>
      <point x="222" y="-166"/>
      <point x="224" y="-166" type="curve"/>
      <point x="241" y="-165"/>
      <point x="254" y="-162"/>
      <point x="270" y="-162" type="curve"/>
      <point x="279" y="-158"/>
      <point x="287" y="-153"/>
      <point x="299" y="-152" type="curve"/>
      <point x="313" y="-143"/>
      <point x="327" y="-133"/>
      <point x="344" y="-127" type="curve"/>
      <point x="349" y="-121"/>
      <point x="355" y="-115"/>
      <point x="360" y="-108" type="curve"/>
      <point x="371" y="-107"/>
      <point x="373" y="-97"/>
      <point x="384" y="-95" type="curve"/>
      <point x="387" y="-92"/>
      <point x="388" y="-87"/>
      <point x="390" y="-83" type="curve"/>
    </contour>
  </outline>
</glyph>
<glyph name="six" format="1">
  <advance width="511"/>
  <unicode hex="0036"/>
  <outline>
    <contour>
      <point x="102" y="419" type="line"/>
      <point x="100" y="409"/>
      <point x="93" y="403"/>
      <point x="88" y="395" type="curve"/>
      <point x="82" y="389"/>
      <point x="79" y="379"/>
      <point x="75" y="373" type="curve"/>
      <point x="72" y="368" type="line"/>
      <point x="66" y="359"/>
      <point x="62" y="348"/>
      <point x="57" y="338" type="curve"/>
      <point x="46" y="319" type="line"/>
      <point x="38" y="285" type="line"/>
      <point x="37" y="271"/>
      <point x="34" y="260"/>
      <point x="28" y="251" type="curve"/>
      <point x="30" y="241"/>
      <point x="24" y="231"/>
      <point x="25" y="220" type="curve"/>
      <point x="25" y="213"/>
      <point x="29" y="206"/>
      <point x="31" y="198" type="curve"/>
      <point x="36" y="174" type="line"/>
      <point x="39" y="163" type="line"/>
      <point x="41" y="151" type="line"/>
      <point x="43" y="143"/>
      <point x="49" y="131"/>
      <point x="52" y="127" type="curve"/>
      <point x="55" y="122"/>
      <point x="58" y="120"/>
      <point x="61" y="116" type="curve" smooth="yes"/>
      <point x="64" y="112"/>
      <point x="66" y="107"/>
      <point x="68" y="102" type="curve"/>
      <point x="83" y="89"/>
      <point x="95" y="73"/>
      <point x="109" y="58" type="curve"/>
      <point x="118" y="55"/>
      <point x="126" y="50"/>
      <point x="132" y="43" type="curve"/>
      <point x="137" y="42"/>
      <point x="139" y="38"/>
      <point x="143" y="35" type="curve"/>
      <point x="147" y="33"/>
      <point x="154" y="33"/>
      <point x="156" y="28" type="curve"/>
      <point x="167" y="29"/>
      <point x="170" y="23"/>
      <point x="176" y="20" type="curve"/>
      <point x="198" y="19"/>
      <point x="216" y="14"/>
      <point x="239" y="15" type="curve"/>
      <point x="248" y="11"/>
      <point x="259" y="10"/>
      <point x="271" y="9" type="curve"/>
      <point x="282" y="11"/>
      <point x="292" y="15"/>
      <point x="307" y="13" type="curve"/>
      <point x="320" y="18"/>
      <point x="333" y="23"/>
      <point x="347" y="26" type="curve"/>
      <point x="357" y="33"/>
      <point x="368" y="40"/>
      <point x="381" y="43" type="curve"/>
      <point x="389" y="52"/>
      <point x="397" y="60"/>
      <point x="410" y="64" type="curve"/>
      <point x="415" y="74"/>
      <point x="423" y="82"/>
      <point x="432" y="89" type="curve"/>
      <point x="434" y="92"/>
      <point x="439" y="92"/>
      <point x="441" y="95" type="curve"/>
      <point x="445" y="97"/>
      <point x="452" y="96"/>
      <point x="452" y="102" type="curve"/>
      <point x="458" y="107"/>
      <point x="452" y="112"/>
      <point x="452" y="121" type="curve"/>
      <point x="466" y="146" type="line"/>
      <point x="468" y="158"/>
      <point x="473" y="168"/>
      <point x="477" y="177" type="curve"/>
      <point x="479" y="201"/>
      <point x="482" y="222"/>
      <point x="482" y="247" type="curve"/>
      <point x="479" y="260"/>
      <point x="475" y="273"/>
      <point x="474" y="289" type="curve"/>
      <point x="466" y="306"/>
      <point x="459" y="326"/>
      <point x="452" y="341" type="curve"/>
      <point x="452" y="342"/>
      <point x="449" y="342"/>
      <point x="449" y="343" type="curve"/>
      <point x="446" y="349"/>
      <point x="445" y="356"/>
      <point x="441" y="362" type="curve"/>
      <point x="436" y="371"/>
      <point x="426" y="377"/>
      <point x="422" y="387" type="curve"/>
      <point x="416" y="396"/>
      <point x="406" y="400"/>
      <point x="402" y="411" type="curve"/>
      <point x="391" y="412"/>
      <point x="388" y="422"/>
      <point x="380" y="425" type="curve"/>
      <point x="374" y="431"/>
      <point x="366" y="435"/>
      <point x="361" y="442" type="curve"/>
      <point x="342" y="445"/>
      <point x="330" y="453"/>
      <point x="312" y="456" type="curve"/>
      <point x="295" y="456" type="line"/>
      <point x="276" y="462"/>
      <point x="254" y="460"/>
      <point x="235" y="459" type="curve"/>
      <point x="228" y="457"/>
      <point x="222" y="454"/>
      <point x="214" y="452" type="curve"/>
      <point x="207" y="454"/>
      <point x="200" y="453"/>
      <point x="192" y="452" type="curve"/>
      <point x="197" y="466"/>
      <point x="208" y="472"/>
      <point x="214" y="485" type="curve"/>
      <point x="224" y="494"/>
      <point x="229" y="506"/>
      <point x="241" y="513" type="curve"/>
      <point x="249" y="532"/>
      <point x="265" y="544"/>
      <point x="274" y="562" type="curve"/>
      <point x="287" y="572"/>
      <point x="297" y="586"/>
      <point x="309" y="598" type="curve"/>
      <point x="310" y="606"/>
      <point x="315" y="610"/>
      <point x="317" y="617" type="curve"/>
      <point x="324" y="623"/>
      <point x="330" y="629"/>
      <point x="337" y="634" type="curve"/>
      <point x="342" y="657"/>
      <point x="364" y="662"/>
      <point x="369" y="685" type="curve"/>
      <point x="367" y="695"/>
      <point x="357" y="697"/>
      <point x="353" y="705" type="curve"/>
      <point x="345" y="710"/>
      <point x="338" y="716"/>
      <point x="328" y="718" type="curve"/>
      <point x="321" y="716"/>
      <point x="319" y="709"/>
      <point x="312" y="707" type="curve"/>
      <point x="311" y="699"/>
      <point x="306" y="694"/>
      <point x="304" y="686" type="curve"/>
      <point x="287" y="666"/>
      <point x="272" y="645"/>
      <point x="258" y="622" type="curve"/>
      <point x="254" y="617"/>
      <point x="246" y="615"/>
      <point x="244" y="608" type="curve"/>
      <point x="240" y="603"/>
      <point x="239" y="595"/>
      <point x="235" y="590" type="curve"/>
      <point x="230" y="586"/>
      <point x="226" y="581"/>
      <point x="224" y="575" type="curve"/>
      <point x="214" y="566"/>
      <point x="206" y="556"/>
      <point x="200" y="545" type="curve"/>
      <point x="193" y="539"/>
      <point x="188" y="532"/>
      <point x="179" y="529" type="curve"/>
      <point x="181" y="523"/>
      <point x="178" y="521"/>
      <point x="178" y="516" type="curve"/>
      <point x="176" y="514"/>
      <point x="172" y="511"/>
      <point x="170" y="508" type="curve"/>
      <point x="164" y="501"/>
      <point x="162" y="492"/>
      <point x="157" y="486" type="curve"/>
      <point x="155" y="483"/>
      <point x="149" y="482"/>
      <point x="150" y="477" type="curve"/>
      <point x="145" y="472"/>
      <point x="143" y="465"/>
      <point x="140" y="459" type="curve"/>
      <point x="131" y="450"/>
      <point x="122" y="441"/>
      <point x="116" y="428" type="curve"/>
    </contour>
    <contour>
      <point x="403" y="151" type="line"/>
      <point x="402" y="148"/>
      <point x="398" y="144"/>
      <point x="397" y="138" type="curve"/>
      <point x="384" y="129"/>
      <point x="376" y="114"/>
      <point x="364" y="103" type="curve"/>
      <point x="360" y="104"/>
      <point x="359" y="101"/>
      <point x="358" y="99" type="curve"/>
      <point x="347" y="95"/>
      <point x="340" y="87"/>
      <point x="329" y="83" type="curve" smooth="yes"/>
      <point x="324" y="81"/>
      <point x="317" y="80"/>
      <point x="312" y="78" type="curve" smooth="yes"/>
      <point x="307" y="76"/>
      <point x="303" y="73"/>
      <point x="298" y="72" type="curve"/>
      <point x="294" y="72"/>
      <point x="292" y="71"/>
      <point x="290" y="70" type="curve"/>
      <point x="273" y="70"/>
      <point x="254" y="69"/>
      <point x="241" y="73" type="curve"/>
      <point x="213" y="67"/>
      <point x="193" y="79"/>
      <point x="173" y="86" type="curve"/>
      <point x="168" y="91"/>
      <point x="163" y="95"/>
      <point x="159" y="100" type="curve"/>
      <point x="153" y="102"/>
      <point x="149" y="105"/>
      <point x="143" y="106" type="curve"/>
      <point x="135" y="115"/>
      <point x="127" y="124"/>
      <point x="118" y="132" type="curve"/>
      <point x="114" y="142"/>
      <point x="109" y="153"/>
      <point x="101" y="160" type="curve"/>
      <point x="97" y="171"/>
      <point x="93" y="181"/>
      <point x="86" y="190" type="curve"/>
      <point x="86" y="202"/>
      <point x="82" y="210"/>
      <point x="80" y="220" type="curve"/>
      <point x="81" y="241"/>
      <point x="80" y="258"/>
      <point x="85" y="273" type="curve"/>
      <point x="88" y="285"/>
      <point x="97" y="293"/>
      <point x="98" y="305" type="curve"/>
      <point x="103" y="312"/>
      <point x="108" y="321"/>
      <point x="112" y="330" type="curve"/>
      <point x="120" y="335"/>
      <point x="122" y="345"/>
      <point x="127" y="352" type="curve"/>
      <point x="134" y="358"/>
      <point x="142" y="361"/>
      <point x="148" y="366" type="curve"/>
      <point x="154" y="372"/>
      <point x="158" y="379"/>
      <point x="165" y="384" type="curve"/>
      <point x="197" y="396" type="line"/>
      <point x="207" y="401"/>
      <point x="219" y="402"/>
      <point x="228" y="407" type="curve"/>
      <point x="246" y="405"/>
      <point x="256" y="411"/>
      <point x="271" y="411" type="curve"/>
      <point x="290" y="408"/>
      <point x="302" y="398"/>
      <point x="323" y="396" type="curve"/>
      <point x="329" y="392"/>
      <point x="337" y="388"/>
      <point x="345" y="385" type="curve"/>
      <point x="351" y="380"/>
      <point x="357" y="375"/>
      <point x="364" y="371" type="curve"/>
      <point x="368" y="365"/>
      <point x="375" y="361"/>
      <point x="380" y="354" type="curve"/>
      <point x="382" y="345"/>
      <point x="390" y="343"/>
      <point x="395" y="338" type="curve"/>
      <point x="399" y="325"/>
      <point x="406" y="316"/>
      <point x="413" y="307" type="curve"/>
      <point x="415" y="299"/>
      <point x="417" y="291"/>
      <point x="422" y="286" type="curve"/>
      <point x="423" y="272"/>
      <point x="429" y="262"/>
      <point x="429" y="247" type="curve"/>
      <point x="430" y="247"/>
      <point x="430" y="246"/>
      <point x="430" y="245" type="curve"/>
      <point x="431" y="232"/>
      <point x="428" y="225"/>
      <point x="429" y="212" type="curve"/>
      <point x="422" y="200"/>
      <point x="421" y="186"/>
      <point x="418" y="174" type="curve"/>
      <point x="417" y="172"/>
      <point x="414" y="165"/>
      <point x="411" y="162" type="curve"/>
      <point x="410" y="159"/>
      <point x="406" y="158"/>
      <point x="405" y="155" type="curve"/>
    </contour>
  </outline>
</glyph>
<glyph name="seven" format="1">
  <advance width="610"/>
  <unicode hex="0037"/>
  <outline>
    <contour>
      <point x="537" y="371" type="line"/>
      <point x="542" y="387"/>
      <point x="551" y="399"/>
      <point x="561" y="411" type="curve"/>
      <point x="571" y="422"/>
      <point x="585" y="431"/>
      <point x="587" y="448" type="curve"/>
      <point x="584" y="454"/>
      <point x="580" y="459"/>
      <point x="575" y="463" type="curve"/>
      <point x="540" y="463"/>
      <point x="506" y="459"/>
      <point x="472" y="459" type="curve"/>
      <point x="451" y="460"/>
      <point x="430" y="464"/>
      <point x="409" y="463" type="curve"/>
      <point x="386" y="459" type="line"/>
      <point x="376" y="459"/>
      <point x="367" y="462"/>
      <point x="357" y="461" type="curve"/>
      <point x="352" y="461"/>
      <point x="346" y="459"/>
      <point x="340" y="459" type="curve"/>
      <point x="331" y="460"/>
      <point x="322" y="463"/>
      <point x="313" y="463" type="curve" smooth="yes"/>
      <point x="300" y="463"/>
      <point x="286" y="459"/>
      <point x="272" y="463" type="curve"/>
      <point x="267" y="461"/>
      <point x="263" y="458"/>
      <point x="256" y="458" type="curve"/>
      <point x="233" y="461"/>
      <point x="215" y="453"/>
      <point x="193" y="459" type="curve"/>
      <point x="169" y="453"/>
      <point x="139" y="453"/>
      <point x="115" y="452" type="curve"/>
      <point x="98" y="461"/>
      <point x="71" y="457"/>
      <point x="50" y="455" type="curve"/>
      <point x="47" y="448"/>
      <point x="45" y="441"/>
      <point x="45" y="431" type="curve"/>
      <point x="40" y="426"/>
      <point x="40" y="416"/>
      <point x="40" y="406" type="curve"/>
      <point x="48" y="401"/>
      <point x="61" y="403"/>
      <point x="69" y="406" type="curve"/>
      <point x="116" y="408"/>
      <point x="165" y="407"/>
      <point x="215" y="409" type="curve"/>
      <point x="222" y="406"/>
      <point x="231" y="407"/>
      <point x="238" y="404" type="curve"/>
      <point x="243" y="405"/>
      <point x="246" y="407"/>
      <point x="252" y="407" type="curve"/>
      <point x="310" y="410"/>
      <point x="355" y="409"/>
      <point x="411" y="411" type="curve"/>
      <point x="428" y="415"/>
      <point x="451" y="414"/>
      <point x="471" y="415" type="curve"/>
      <point x="475" y="412"/>
      <point x="484" y="415"/>
      <point x="485" y="409" type="curve"/>
      <point x="481" y="401"/>
      <point x="472" y="399"/>
      <point x="465" y="395" type="curve"/>
      <point x="465" y="382"/>
      <point x="454" y="381"/>
      <point x="452" y="371" type="curve"/>
      <point x="446" y="364"/>
      <point x="439" y="358"/>
      <point x="435" y="351" type="curve"/>
      <point x="422" y="343" type="line"/>
      <point x="416" y="329"/>
      <point x="402" y="323"/>
      <point x="400" y="305" type="curve"/>
      <point x="387" y="294" type="line"/>
      <point x="386" y="286"/>
      <point x="379" y="285"/>
      <point x="378" y="278" type="curve"/>
      <point x="369" y="275"/>
      <point x="366" y="267"/>
      <point x="359" y="262" type="curve"/>
      <point x="346" y="239"/>
      <point x="327" y="222"/>
      <point x="310" y="203" type="curve"/>
      <point x="300" y="194"/>
      <point x="294" y="182"/>
      <point x="286" y="171" type="curve"/>
      <point x="275" y="164"/>
      <point x="273" y="148"/>
      <point x="260" y="143" type="curve"/>
      <point x="250" y="120"/>
      <point x="229" y="107"/>
      <point x="214" y="89" type="curve"/>
      <point x="213" y="82"/>
      <point x="209" y="78"/>
      <point x="208" y="72" type="curve"/>
      <point x="200" y="65"/>
      <point x="190" y="59"/>
      <point x="182" y="53" type="curve"/>
      <point x="176" y="38"/>
      <point x="162" y="30"/>
      <point x="156" y="15" type="curve"/>
      <point x="151" y="12"/>
      <point x="148" y="8"/>
      <point x="145" y="4" type="curve"/>
      <point x="141" y="0"/>
      <point x="136" y="-2"/>
      <point x="133" y="-7" type="curve"/>
      <point x="131" y="-9"/>
      <point x="130" y="-13"/>
      <point x="130" y="-18" type="curve"/>
      <point x="120" y="-25"/>
      <point x="115" y="-37"/>
      <point x="104" y="-43" type="curve"/>
      <point x="97" y="-56" type="line"/>
      <point x="85" y="-63"/>
      <point x="75" y="-74"/>
      <point x="66" y="-84" type="curve"/>
      <point x="61" y="-100" type="line"/>
      <point x="57" y="-104"/>
      <point x="52" y="-106"/>
      <point x="48" y="-110" type="curve"/>
      <point x="47" y="-122"/>
      <point x="36" y="-125"/>
      <point x="33" y="-136" type="curve"/>
      <point x="34" y="-147"/>
      <point x="38" y="-154"/>
      <point x="40" y="-163" type="curve"/>
      <point x="53" y="-165"/>
      <point x="62" y="-170"/>
      <point x="75" y="-171" type="curve"/>
      <point x="85" y="-166"/>
      <point x="94" y="-160"/>
      <point x="100" y="-151" type="curve"/>
      <point x="104" y="-147"/>
      <point x="110" y="-146"/>
      <point x="113" y="-141" type="curve"/>
      <point x="115" y="-135"/>
      <point x="121" y="-133"/>
      <point x="126" y="-130" type="curve"/>
      <point x="127" y="-123"/>
      <point x="132" y="-120"/>
      <point x="137" y="-116" type="curve"/>
      <point x="138" y="-109"/>
      <point x="142" y="-103"/>
      <point x="145" y="-97" type="curve"/>
      <point x="157" y="-91" type="line"/>
      <point x="165" y="-76" type="line"/>
      <point x="174" y="-76"/>
      <point x="177" y="-68"/>
      <point x="181" y="-62" type="curve"/>
      <point x="190" y="-63"/>
      <point x="191" y="-56"/>
      <point x="197" y="-53" type="curve"/>
      <point x="203" y="-52"/>
      <point x="209" y="-49"/>
      <point x="214" y="-47" type="curve"/>
      <point x="216" y="-38"/>
      <point x="207" y="-32"/>
      <point x="214" y="-28" type="curve"/>
      <point x="225" y="-26"/>
      <point x="243" y="-6"/>
      <point x="244" y="4" type="curve"/>
      <point x="247" y="17"/>
      <point x="255" y="28"/>
      <point x="261" y="35" type="curve"/>
      <point x="266" y="42"/>
      <point x="268" y="49"/>
      <point x="275" y="51" type="curve"/>
      <point x="287" y="55"/>
      <point x="301" y="69"/>
      <point x="301" y="80" type="curve"/>
      <point x="302" y="89"/>
      <point x="314" y="87"/>
      <point x="318" y="94" type="curve"/>
      <point x="315" y="95"/>
      <point x="314" y="99"/>
      <point x="315" y="103" type="curve"/>
      <point x="327" y="114"/>
      <point x="333" y="132"/>
      <point x="345" y="143" type="curve"/>
      <point x="356" y="155"/>
      <point x="368" y="166"/>
      <point x="378" y="180" type="curve"/>
      <point x="384" y="183"/>
      <point x="388" y="188"/>
      <point x="394" y="192" type="curve"/>
      <point x="396" y="207"/>
      <point x="408" y="213"/>
      <point x="411" y="228" type="curve"/>
      <point x="418" y="234"/>
      <point x="424" y="241"/>
      <point x="433" y="245" type="curve"/>
      <point x="434" y="250"/>
      <point x="436" y="254"/>
      <point x="438" y="258" type="curve"/>
      <point x="449" y="266"/>
      <point x="459" y="277"/>
      <point x="469" y="286" type="curve"/>
      <point x="473" y="293"/>
      <point x="477" y="301"/>
      <point x="483" y="305" type="curve"/>
      <point x="484" y="315"/>
      <point x="491" y="319"/>
      <point x="491" y="329" type="curve"/>
      <point x="498" y="333"/>
      <point x="504" y="339"/>
      <point x="512" y="343" type="curve"/>
      <point x="515" y="350"/>
      <point x="522" y="353"/>
      <point x="523" y="362" type="curve"/>
    </contour>
  </outline>
</glyph>
<glyph name="eight" format="1">
  <advance width="517"/>
  <unicode hex="0038"/>
  <outline>
    <contour>
      <point x="351" y="420" type="line"/>
      <point x="345" y="423"/>
      <point x="338" y="425"/>
      <point x="336" y="431" type="curve"/>
      <point x="354" y="441"/>
      <point x="366" y="458"/>
      <point x="381" y="471" type="curve"/>
      <point x="386" y="481"/>
      <point x="391" y="490"/>
      <point x="397" y="499" type="curve"/>
      <point x="398" y="513"/>
      <point x="403" y="525"/>
      <point x="404" y="537" type="curve"/>
      <point x="404" y="540"/>
      <point x="402" y="543"/>
      <point x="402" y="546" type="curve" smooth="yes"/>
      <point x="402" y="550"/>
      <point x="404" y="554"/>
      <point x="404" y="557" type="curve"/>
      <point x="400" y="568" type="line"/>
      <point x="398" y="582"/>
      <point x="397" y="593"/>
      <point x="396" y="606" type="curve"/>
      <point x="389" y="615"/>
      <point x="388" y="629"/>
      <point x="383" y="639" type="curve"/>
      <point x="367" y="653" type="line"/>
      <point x="361" y="666" type="line"/>
      <point x="349" y="676"/>
      <point x="335" y="685"/>
      <point x="322" y="694" type="curve"/>
      <point x="309" y="697"/>
      <point x="298" y="700"/>
      <point x="287" y="704" type="curve"/>
      <point x="258" y="707"/>
      <point x="225" y="704"/>
      <point x="195" y="702" type="curve"/>
      <point x="181" y="697"/>
      <point x="170" y="688"/>
      <point x="156" y="683" type="curve"/>
      <point x="151" y="676"/>
      <point x="144" y="672"/>
      <point x="137" y="668" type="curve"/>
      <point x="126" y="652"/>
      <point x="114" y="634"/>
      <point x="107" y="617" type="curve"/>
      <point x="104" y="606" type="line"/>
      <point x="103" y="603"/>
      <point x="100" y="600"/>
      <point x="99" y="597" type="curve"/>
      <point x="98" y="591"/>
      <point x="99" y="585"/>
      <point x="98" y="579" type="curve" smooth="yes"/>
      <point x="97" y="574"/>
      <point x="94" y="570"/>
      <point x="93" y="565" type="curve" smooth="yes"/>
      <point x="91" y="553"/>
      <point x="91" y="537"/>
      <point x="93" y="527" type="curve" smooth="yes"/>
      <point x="97" y="509"/>
      <point x="106" y="492"/>
      <point x="109" y="474" type="curve"/>
      <point x="111" y="472"/>
      <point x="114" y="471"/>
      <point x="113" y="467" type="curve"/>
      <point x="122" y="460"/>
      <point x="132" y="455"/>
      <point x="139" y="447" type="curve"/>
      <point x="144" y="445"/>
      <point x="148" y="442"/>
      <point x="153" y="439" type="curve"/>
      <point x="156" y="435"/>
      <point x="164" y="435"/>
      <point x="164" y="426" type="curve"/>
      <point x="156" y="419"/>
      <point x="144" y="416"/>
      <point x="132" y="412" type="curve"/>
      <point x="125" y="404"/>
      <point x="115" y="398"/>
      <point x="106" y="392" type="curve"/>
      <point x="92" y="378"/>
      <point x="79" y="362"/>
      <point x="68" y="346" type="curve"/>
      <point x="67" y="335"/>
      <point x="57" y="329"/>
      <point x="52" y="319" type="curve"/>
      <point x="51" y="318"/>
      <point x="52" y="316"/>
      <point x="52" y="314" type="curve"/>
      <point x="52" y="314"/>
      <point x="49" y="312"/>
      <point x="49" y="311" type="curve"/>
      <point x="45" y="300"/>
      <point x="46" y="291"/>
      <point x="39" y="285" type="curve"/>
      <point x="41" y="276"/>
      <point x="37" y="272"/>
      <point x="38" y="264" type="curve"/>
      <point x="31" y="254"/>
      <point x="27" y="242"/>
      <point x="24" y="228" type="curve"/>
      <point x="24" y="215"/>
      <point x="24" y="207"/>
      <point x="27" y="195" type="curve"/>
      <point x="25" y="185"/>
      <point x="29" y="175"/>
      <point x="28" y="169" type="curve"/>
      <point x="28" y="167"/>
      <point x="24" y="167"/>
      <point x="25" y="163" type="curve"/>
      <point x="28" y="159"/>
      <point x="31" y="155"/>
      <point x="30" y="147" type="curve"/>
      <point x="36" y="134"/>
      <point x="45" y="124"/>
      <point x="49" y="108" type="curve"/>
      <point x="53" y="106"/>
      <point x="56" y="104"/>
      <point x="58" y="100" type="curve"/>
      <point x="62" y="84"/>
      <point x="75" y="75"/>
      <point x="80" y="61" type="curve"/>
      <point x="89" y="58"/>
      <point x="98" y="54"/>
      <point x="101" y="45" type="curve"/>
      <point x="107" y="44"/>
      <point x="110" y="39"/>
      <point x="117" y="39" type="curve"/>
      <point x="121" y="33"/>
      <point x="125" y="27"/>
      <point x="131" y="23" type="curve"/>
      <point x="136" y="22"/>
      <point x="140" y="20"/>
      <point x="147" y="21" type="curve"/>
      <point x="152" y="15"/>
      <point x="162" y="14"/>
      <point x="169" y="10" type="curve"/>
      <point x="185" y="4"/>
      <point x="207" y="4"/>
      <point x="225" y="-1" type="curve"/>
      <point x="239" y="4"/>
      <point x="253" y="-1"/>
      <point x="266" y="-1" type="curve"/>
      <point x="279" y="0"/>
      <point x="292" y="3"/>
      <point x="304" y="6" type="curve"/>
      <point x="317" y="8"/>
      <point x="329" y="12"/>
      <point x="340" y="15" type="curve"/>
      <point x="350" y="22"/>
      <point x="361" y="28"/>
      <point x="370" y="35" type="curve"/>
      <point x="380" y="36"/>
      <point x="385" y="41"/>
      <point x="392" y="43" type="curve"/>
      <point x="396" y="48"/>
      <point x="399" y="53"/>
      <point x="402" y="59" type="curve"/>
      <point x="415" y="64"/>
      <point x="420" y="76"/>
      <point x="430" y="83" type="curve"/>
      <point x="433" y="88"/>
      <point x="435" y="93"/>
      <point x="438" y="97" type="curve"/>
      <point x="445" y="98"/>
      <point x="446" y="103"/>
      <point x="451" y="106" type="curve"/>
      <point x="455" y="110"/>
      <point x="456" y="121"/>
      <point x="457" y="132" type="curve"/>
      <point x="461" y="140"/>
      <point x="464" y="148"/>
      <point x="463" y="160" type="curve"/>
      <point x="468" y="168"/>
      <point x="470" y="179"/>
      <point x="473" y="188" type="curve"/>
      <point x="473" y="216"/>
      <point x="470" y="241"/>
      <point x="463" y="262" type="curve"/>
      <point x="464" y="286"/>
      <point x="453" y="297"/>
      <point x="451" y="318" type="curve"/>
      <point x="447" y="321"/>
      <point x="446" y="326"/>
      <point x="444" y="332" type="curve"/>
      <point x="435" y="345"/>
      <point x="426" y="358"/>
      <point x="419" y="373" type="curve"/>
      <point x="415" y="376"/>
      <point x="413" y="381"/>
      <point x="407" y="382" type="curve"/>
      <point x="403" y="386"/>
      <point x="402" y="393"/>
      <point x="396" y="393" type="curve"/>
      <point x="388" y="401"/>
      <point x="380" y="407"/>
      <point x="372" y="414" type="curve"/>
    </contour>
    <contour>
      <point x="356" y="565" type="line"/>
      <point x="356" y="543" type="line"/>
      <point x="358" y="543"/>
      <point x="357" y="541"/>
      <point x="356" y="541" type="curve"/>
      <point x="356" y="516"/>
      <point x="339" y="507"/>
      <point x="334" y="486" type="curve"/>
      <point x="315" y="472" type="line"/>
      <point x="309" y="467"/>
      <point x="305" y="461"/>
      <point x="298" y="458" type="curve"/>
      <point x="294" y="456"/>
      <point x="289" y="458"/>
      <point x="287" y="453" type="curve"/>
      <point x="264" y="452"/>
      <point x="247" y="446"/>
      <point x="222" y="447" type="curve"/>
      <point x="222" y="449"/>
      <point x="219" y="448"/>
      <point x="217" y="448" type="curve"/>
      <point x="211" y="450"/>
      <point x="209" y="456"/>
      <point x="203" y="458" type="curve"/>
      <point x="194" y="457"/>
      <point x="193" y="463"/>
      <point x="186" y="464" type="curve"/>
      <point x="166" y="480"/>
      <point x="153" y="503"/>
      <point x="142" y="527" type="curve"/>
      <point x="143" y="537"/>
      <point x="139" y="542"/>
      <point x="140" y="553" type="curve" smooth="yes"/>
      <point x="141" y="563"/>
      <point x="144" y="572"/>
      <point x="148" y="582" type="curve" smooth="yes"/>
      <point x="155" y="601"/>
      <point x="159" y="610"/>
      <point x="172" y="623" type="curve" smooth="yes"/>
      <point x="187" y="639"/>
      <point x="208" y="654"/>
      <point x="235" y="660" type="curve"/>
      <point x="249" y="661"/>
      <point x="258" y="657"/>
      <point x="271" y="658" type="curve"/>
      <point x="284" y="652"/>
      <point x="296" y="645"/>
      <point x="310" y="641" type="curve"/>
      <point x="315" y="637"/>
      <point x="316" y="629"/>
      <point x="322" y="625" type="curve"/>
      <point x="326" y="621"/>
      <point x="331" y="618"/>
      <point x="334" y="612" type="curve" smooth="yes"/>
    </contour>
    <contour>
      <point x="121" y="337" type="line"/>
      <point x="129" y="349" type="line"/>
      <point x="136" y="354"/>
      <point x="144" y="358"/>
      <point x="150" y="363" type="curve"/>
      <point x="158" y="366"/>
      <point x="163" y="372"/>
      <point x="169" y="378" type="curve"/>
      <point x="185" y="383"/>
      <point x="199" y="390"/>
      <point x="214" y="396" type="curve"/>
      <point x="226" y="398"/>
      <point x="240" y="397"/>
      <point x="249" y="401" type="curve"/>
      <point x="258" y="399"/>
      <point x="268" y="397"/>
      <point x="281" y="398" type="curve"/>
      <point x="292" y="396"/>
      <point x="300" y="391"/>
      <point x="312" y="390" type="curve"/>
      <point x="320" y="384"/>
      <point x="328" y="376"/>
      <point x="340" y="374" type="curve"/>
      <point x="348" y="365"/>
      <point x="357" y="356"/>
      <point x="367" y="349" type="curve"/>
      <point x="376" y="341"/>
      <point x="383" y="331"/>
      <point x="392" y="324" type="curve"/>
      <point x="395" y="316"/>
      <point x="397" y="308"/>
      <point x="402" y="300" type="curve"/>
      <point x="403" y="298"/>
      <point x="406" y="298"/>
      <point x="407" y="296" type="curve"/>
      <point x="409" y="290"/>
      <point x="408" y="282"/>
      <point x="410" y="277" type="curve"/>
      <point x="411" y="271"/>
      <point x="417" y="268"/>
      <point x="416" y="262" type="curve"/>
      <point x="419" y="257"/>
      <point x="421" y="250"/>
      <point x="421" y="240" type="curve"/>
      <point x="425" y="226"/>
      <point x="421" y="207"/>
      <point x="421" y="192" type="curve"/>
      <point x="417" y="183"/>
      <point x="412" y="175"/>
      <point x="411" y="163" type="curve"/>
      <point x="404" y="151"/>
      <point x="398" y="138"/>
      <point x="391" y="125" type="curve"/>
      <point x="383" y="119"/>
      <point x="376" y="112"/>
      <point x="370" y="103" type="curve"/>
      <point x="365" y="102"/>
      <point x="361" y="98"/>
      <point x="358" y="94" type="curve"/>
      <point x="345" y="90"/>
      <point x="334" y="84"/>
      <point x="326" y="75" type="curve"/>
      <point x="318" y="73"/>
      <point x="310" y="70"/>
      <point x="304" y="65" type="curve"/>
      <point x="284" y="65"/>
      <point x="267" y="56"/>
      <point x="246" y="59" type="curve" smooth="yes"/>
      <point x="238" y="60"/>
      <point x="225" y="59"/>
      <point x="213" y="61" type="curve" smooth="yes"/>
      <point x="201" y="63"/>
      <point x="190" y="70"/>
      <point x="178" y="70" type="curve"/>
      <point x="171" y="76"/>
      <point x="164" y="83"/>
      <point x="158" y="91" type="curve"/>
      <point x="140" y="96"/>
      <point x="131" y="110"/>
      <point x="117" y="119" type="curve"/>
      <point x="114" y="131"/>
      <point x="106" y="138"/>
      <point x="99" y="147" type="curve"/>
      <point x="97" y="160"/>
      <point x="91" y="169"/>
      <point x="85" y="177" type="curve"/>
      <point x="83" y="199"/>
      <point x="73" y="218"/>
      <point x="77" y="242" type="curve"/>
      <point x="76" y="249"/>
      <point x="83" y="249"/>
      <point x="84" y="255" type="curve"/>
      <point x="84" y="263"/>
      <point x="88" y="271"/>
      <point x="90" y="278" type="curve" smooth="yes"/>
      <point x="92" y="285"/>
      <point x="93" y="294"/>
      <point x="96" y="300" type="curve"/>
      <point x="100" y="309"/>
      <point x="108" y="316"/>
      <point x="113" y="324" type="curve"/>
      <point x="115" y="326"/>
      <point x="115" y="330"/>
      <point x="117" y="332" type="curve"/>
    </contour>
  </outline>
</glyph>
<glyph name="nine" format="1">
  <advance width="504"/>
  <unicode hex="0039"/>
  <outline>
    <contour>
      <point x="480" y="244" type="line"/>
      <point x="475" y="255"/>
      <point x="471" y="266"/>
      <point x="467" y="278" type="curve"/>
      <point x="469" y="292"/>
      <point x="462" y="297"/>
      <point x="464" y="311" type="curve"/>
      <point x="460" y="323"/>
      <point x="452" y="331"/>
      <point x="453" y="348" type="curve"/>
      <point x="447" y="359"/>
      <point x="436" y="366"/>
      <point x="437" y="385" type="curve"/>
      <point x="430" y="388"/>
      <point x="425" y="394"/>
      <point x="420" y="400" type="curve"/>
      <point x="415" y="405"/>
      <point x="419" y="398"/>
      <point x="404" y="417" type="curve"/>
      <point x="396" y="421"/>
      <point x="389" y="427"/>
      <point x="382" y="433" type="curve"/>
      <point x="372" y="434"/>
      <point x="367" y="440"/>
      <point x="359" y="442" type="curve"/>
      <point x="355" y="444"/>
      <point x="351" y="445"/>
      <point x="348" y="447" type="curve"/>
      <point x="341" y="446"/>
      <point x="343" y="454"/>
      <point x="337" y="453" type="curve"/>
      <point x="326" y="454"/>
      <point x="320" y="460"/>
      <point x="311" y="463" type="curve"/>
      <point x="284" y="466"/>
      <point x="254" y="468"/>
      <point x="229" y="469" type="curve"/>
      <point x="218" y="465"/>
      <point x="205" y="464"/>
      <point x="192" y="463" type="curve"/>
      <point x="173" y="457"/>
      <point x="158" y="448"/>
      <point x="138" y="444" type="curve"/>
      <point x="132" y="437"/>
      <point x="124" y="433"/>
      <point x="113" y="431" type="curve"/>
      <point x="104" y="422"/>
      <point x="95" y="414"/>
      <point x="84" y="407" type="curve"/>
      <point x="82" y="402"/>
      <point x="75" y="400"/>
      <point x="73" y="393" type="curve"/>
      <point x="69" y="389"/>
      <point x="63" y="387"/>
      <point x="61" y="381" type="curve"/>
      <point x="57" y="365"/>
      <point x="50" y="353"/>
      <point x="42" y="341" type="curve"/>
      <point x="37" y="315"/>
      <point x="26" y="295"/>
      <point x="23" y="267" type="curve"/>
      <point x="20" y="263"/>
      <point x="17" y="258"/>
      <point x="17" y="251" type="curve"/>
      <point x="16" y="230"/>
      <point x="17" y="210"/>
      <point x="21" y="193" type="curve"/>
      <point x="19" y="184"/>
      <point x="20" y="179"/>
      <point x="21" y="169" type="curve"/>
      <point x="28" y="161"/>
      <point x="32" y="148"/>
      <point x="37" y="138" type="curve" smooth="yes"/>
      <point x="39" y="134"/>
      <point x="41" y="129"/>
      <point x="40" y="122" type="curve"/>
      <point x="44" y="119"/>
      <point x="51" y="119"/>
      <point x="53" y="114" type="curve"/>
      <point x="56" y="100"/>
      <point x="68" y="95"/>
      <point x="73" y="83" type="curve"/>
      <point x="88" y="77"/>
      <point x="97" y="65"/>
      <point x="106" y="54" type="curve"/>
      <point x="117" y="49"/>
      <point x="127" y="42"/>
      <point x="135" y="34" type="curve"/>
      <point x="140" y="33"/>
      <point x="143" y="31"/>
      <point x="149" y="31" type="curve"/>
      <point x="154" y="28"/>
      <point x="190" y="25"/>
      <point x="199" y="28" type="curve"/>
      <point x="215" y="27"/>
      <point x="226" y="31"/>
      <point x="237" y="26" type="curve"/>
      <point x="248" y="30"/>
      <point x="264" y="29"/>
      <point x="278" y="29" type="curve"/>
      <point x="287" y="31"/>
      <point x="296" y="38"/>
      <point x="300" y="28" type="curve"/>
      <point x="300" y="16"/>
      <point x="290" y="14"/>
      <point x="285" y="7" type="curve"/>
      <point x="281" y="-1"/>
      <point x="274" y="-6"/>
      <point x="269" y="-13" type="curve"/>
      <point x="256" y="-25"/>
      <point x="248" y="-41"/>
      <point x="234" y="-51" type="curve"/>
      <point x="230" y="-63"/>
      <point x="222" y="-73"/>
      <point x="214" y="-81" type="curve"/>
      <point x="206" y="-91"/>
      <point x="200" y="-102"/>
      <point x="190" y="-110" type="curve"/>
      <point x="189" y="-124"/>
      <point x="176" y="-127"/>
      <point x="176" y="-143" type="curve"/>
      <point x="179" y="-156"/>
      <point x="189" y="-163"/>
      <point x="198" y="-171" type="curve"/>
      <point x="206" y="-171"/>
      <point x="217" y="-172"/>
      <point x="223" y="-169" type="curve" smooth="yes"/>
      <point x="231" y="-165"/>
      <point x="236" y="-158"/>
      <point x="242" y="-151" type="curve"/>
      <point x="253" y="-143"/>
      <point x="260" y="-132"/>
      <point x="270" y="-124" type="curve"/>
      <point x="271" y="-117"/>
      <point x="275" y="-114"/>
      <point x="277" y="-108" type="curve"/>
      <point x="283" y="-103"/>
      <point x="288" y="-95"/>
      <point x="294" y="-89" type="curve"/>
      <point x="302" y="-85"/>
      <point x="304" y="-75"/>
      <point x="313" y="-72" type="curve"/>
      <point x="314" y="-55"/>
      <point x="326" y="-48"/>
      <point x="332" y="-35" type="curve"/>
      <point x="340" y="-25"/>
      <point x="347" y="-13"/>
      <point x="357" y="-4" type="curve"/>
      <point x="359" y="1"/>
      <point x="362" y="5"/>
      <point x="363" y="10" type="curve"/>
      <point x="376" y="17"/>
      <point x="378" y="33"/>
      <point x="390" y="40" type="curve"/>
      <point x="390" y="49"/>
      <point x="398" y="55"/>
      <point x="401" y="59" type="curve"/>
      <point x="403" y="61"/>
      <point x="403" y="65"/>
      <point x="404" y="67" type="curve"/>
      <point x="410" y="75"/>
      <point x="418" y="82"/>
      <point x="422" y="92" type="curve"/>
      <point x="432" y="99"/>
      <point x="440" y="109"/>
      <point x="448" y="117" type="curve"/>
      <point x="447" y="138"/>
      <point x="457" y="146"/>
      <point x="464" y="157" type="curve"/>
      <point x="466" y="167"/>
      <point x="470" y="175"/>
      <point x="472" y="184" type="curve"/>
      <point x="472" y="195"/>
      <point x="480" y="200"/>
      <point x="482" y="210" type="curve"/>
      <point x="482" y="216"/>
      <point x="481" y="219"/>
      <point x="480" y="223" type="curve"/>
    </contour>
    <contour>
      <point x="340" y="385" type="line"/>
      <point x="349" y="381"/>
      <point x="360" y="373"/>
      <point x="362" y="360" type="curve"/>
      <point x="367" y="355"/>
      <point x="375" y="352"/>
      <point x="381" y="348" type="curve"/>
      <point x="390" y="333"/>
      <point x="397" y="317"/>
      <point x="407" y="303" type="curve"/>
      <point x="410" y="286"/>
      <point x="419" y="275"/>
      <point x="419" y="255" type="curve"/>
      <point x="420" y="255"/>
      <point x="420" y="254"/>
      <point x="420" y="253" type="curve" smooth="yes"/>
      <point x="420" y="242"/>
      <point x="420" y="226"/>
      <point x="419" y="212" type="curve"/>
      <point x="409" y="183"/>
      <point x="395" y="158"/>
      <point x="379" y="135" type="curve"/>
      <point x="372" y="127"/>
      <point x="363" y="122"/>
      <point x="355" y="114" type="curve"/>
      <point x="346" y="109"/>
      <point x="337" y="103"/>
      <point x="330" y="95" type="curve"/>
      <point x="319" y="94"/>
      <point x="311" y="89"/>
      <point x="303" y="84" type="curve"/>
      <point x="288" y="88"/>
      <point x="278" y="82"/>
      <point x="266" y="78" type="curve"/>
      <point x="248" y="78"/>
      <point x="232" y="78"/>
      <point x="217" y="80" type="curve"/>
      <point x="201" y="87"/>
      <point x="186" y="94"/>
      <point x="168" y="99" type="curve"/>
      <point x="159" y="105"/>
      <point x="150" y="111"/>
      <point x="138" y="114" type="curve"/>
      <point x="136" y="121"/>
      <point x="128" y="122"/>
      <point x="128" y="132" type="curve"/>
      <point x="118" y="138"/>
      <point x="111" y="149"/>
      <point x="102" y="157" type="curve"/>
      <point x="100" y="162"/>
      <point x="96" y="165"/>
      <point x="95" y="171" type="curve"/>
      <point x="91" y="176"/>
      <point x="84" y="178"/>
      <point x="81" y="184" type="curve"/>
      <point x="77" y="207"/>
      <point x="68" y="226"/>
      <point x="70" y="256" type="curve"/>
      <point x="74" y="266"/>
      <point x="76" y="277"/>
      <point x="76" y="289" type="curve"/>
      <point x="81" y="298"/>
      <point x="86" y="306"/>
      <point x="89" y="316" type="curve"/>
      <point x="93" y="325"/>
      <point x="100" y="331"/>
      <point x="103" y="341" type="curve"/>
      <point x="118" y="352"/>
      <point x="126" y="369"/>
      <point x="140" y="381" type="curve"/>
      <point x="141" y="382"/>
      <point x="142" y="381"/>
      <point x="143" y="382" type="curve"/>
      <point x="143" y="383"/>
      <point x="147" y="384"/>
      <point x="147" y="387" type="curve"/>
      <point x="166" y="397"/>
      <point x="190" y="403"/>
      <point x="209" y="414" type="curve"/>
      <point x="227" y="414"/>
      <point x="238" y="415"/>
      <point x="253" y="415" type="curve"/>
      <point x="270" y="411"/>
      <point x="291" y="410"/>
      <point x="302" y="400" type="curve"/>
      <point x="316" y="400"/>
      <point x="328" y="395"/>
      <point x="338" y="389" type="curve"/>
    </contour>
  </outline>
</glyph>
<glyph name="colon" format="1">
  <advance width="196"/>
  <unicode hex="003A"/>
  <outline>
    <contour>
      <point x="86" y="261"/>
      <point x="103" y="261"/>
      <point x="112" y="263" type="curve"/>
      <point x="126" y="272"/>
      <point x="132" y="296"/>
      <point x="127" y="320" type="curve"/>
      <point x="119" y="330"/>
      <point x="109" y="338"/>
      <point x="90" y="337" type="curve"/>
      <point x="82" y="333"/>
      <point x="74" y="328"/>
      <point x="71" y="320" type="curve"/>
      <point x="67" y="311"/>
      <point x="57" y="308"/>
      <point x="55" y="298" type="curve"/>
      <point x="63" y="287"/>
      <point x="68" y="273"/>
      <point x="77" y="263" type="curve"/>
    </contour>
    <contour>
      <point x="125" y="106"/>
      <point x="117" y="107"/>
      <point x="112" y="109" type="curve"/>
      <point x="103" y="122"/>
      <point x="83" y="116"/>
      <point x="75" y="107" type="curve"/>
      <point x="70" y="91"/>
      <point x="60" y="80"/>
      <point x="58" y="61" type="curve"/>
      <point x="60" y="52"/>
      <point x="67" y="47"/>
      <point x="69" y="38" type="curve"/>
      <point x="77" y="31"/>
      <point x="90" y="29"/>
      <point x="104" y="28" type="curve"/>
      <point x="117" y="35"/>
      <point x="126" y="45"/>
      <point x="135" y="55" type="curve"/>
      <point x="134" y="63"/>
      <point x="137" y="67"/>
      <point x="137" y="74" type="curve"/>
      <point x="131" y="80"/>
      <point x="133" y="94"/>
      <point x="129" y="102" type="curve"/>
    </contour>
  </outline>
</glyph>
<glyph name="semicolon" format="1">
  <advance width="235"/>
  <unicode hex="003B"/>
  <outline>
    <contour>
      <point x="61" y="296"/>
      <point x="62" y="289"/>
      <point x="60" y="280" type="curve"/>
      <point x="64" y="266"/>
      <point x="72" y="255"/>
      <point x="85" y="249" type="curve"/>
      <point x="95" y="248"/>
      <point x="102" y="250"/>
      <point x="110" y="251" type="curve"/>
      <point x="116" y="256"/>
      <point x="125" y="260"/>
      <point x="129" y="266" type="curve"/>
      <point x="138" y="282"/>
      <point x="130" y="298"/>
      <point x="121" y="312" type="curve"/>
      <point x="112" y="317"/>
      <point x="104" y="323"/>
      <point x="91" y="325" type="curve"/>
      <point x="79" y="320"/>
      <point x="68" y="314"/>
      <point x="60" y="306" type="curve"/>
    </contour>
    <contour>
      <point x="47" y="16" type="line"/>
      <point x="37" y="1"/>
      <point x="32" y="-20"/>
      <point x="27" y="-40" type="curve"/>
      <point x="23" y="-44"/>
      <point x="18" y="-46"/>
      <point x="14" y="-51" type="curve"/>
      <point x="14" y="-57"/>
      <point x="16" y="-63"/>
      <point x="16" y="-71" type="curve"/>
      <point x="15" y="-81"/>
      <point x="9" y="-91"/>
      <point x="11" y="-99" type="curve"/>
      <point x="12" y="-104"/>
      <point x="19" y="-110"/>
      <point x="22" y="-110" type="curve"/>
      <point x="31" y="-112"/>
      <point x="38" y="-106"/>
      <point x="42" y="-98" type="curve" smooth="yes"/>
      <point x="46" y="-90"/>
      <point x="53" y="-86"/>
      <point x="57" y="-79" type="curve"/>
      <point x="59" y="-75"/>
      <point x="57" y="-68"/>
      <point x="60" y="-65" type="curve"/>
      <point x="68" y="-52"/>
      <point x="76" y="-39"/>
      <point x="80" y="-22" type="curve"/>
      <point x="97" y="-4"/>
      <point x="103" y="26"/>
      <point x="120" y="44" type="curve"/>
      <point x="118" y="56"/>
      <point x="128" y="67"/>
      <point x="129" y="79" type="curve" smooth="yes"/>
      <point x="130" y="90"/>
      <point x="128" y="100"/>
      <point x="123" y="110" type="curve"/>
      <point x="111" y="112"/>
      <point x="97" y="118"/>
      <point x="85" y="113" type="curve"/>
      <point x="79" y="105"/>
      <point x="78" y="93"/>
      <point x="71" y="87" type="curve"/>
      <point x="69" y="69"/>
      <point x="60" y="60"/>
      <point x="58" y="42" type="curve"/>
      <point x="56" y="38"/>
      <point x="51" y="37"/>
      <point x="50" y="31" type="curve" smooth="yes"/>
    </contour>
  </outline>
</glyph>
<glyph name="equal" format="1">
  <advance width="375"/>
  <unicode hex="003D"/>
  <outline>
    <contour>
      <point x="127" y="268" type="line"/>
      <point x="138" y="269"/>
      <point x="182" y="265"/>
      <point x="193" y="265" type="curve" smooth="yes"/>
      <point x="199" y="265"/>
      <point x="291" y="275"/>
      <point x="304" y="269" type="curve" smooth="yes"/>
      <point x="311" y="266"/>
      <point x="321" y="269"/>
      <point x="326" y="274" type="curve" smooth="yes"/>
      <point x="329" y="277"/>
      <point x="330" y="280"/>
      <point x="331" y="282" type="curve"/>
      <point x="336" y="291"/>
      <point x="330" y="286"/>
      <point x="329" y="296" type="curve"/>
      <point x="326" y="304"/>
      <point x="331" y="315"/>
      <point x="323" y="319" type="curve"/>
      <point x="308" y="321"/>
      <point x="293" y="318"/>
      <point x="277" y="319" type="curve"/>
      <point x="271" y="319"/>
      <point x="263" y="320"/>
      <point x="256" y="320" type="curve" smooth="yes"/>
      <point x="249" y="320"/>
      <point x="204" y="319"/>
      <point x="197" y="318" type="curve" smooth="yes"/>
      <point x="165" y="314"/>
      <point x="149" y="326"/>
      <point x="102" y="319" type="curve" smooth="yes"/>
      <point x="89" y="317"/>
      <point x="67" y="320"/>
      <point x="59" y="319" type="curve"/>
      <point x="53" y="318"/>
      <point x="38" y="321"/>
      <point x="35" y="317" type="curve"/>
      <point x="28" y="311"/>
      <point x="31" y="299"/>
      <point x="30" y="288" type="curve" smooth="yes"/>
      <point x="29" y="277"/>
      <point x="26" y="284"/>
      <point x="27" y="273" type="curve" smooth="yes"/>
      <point x="28" y="259"/>
      <point x="43" y="258"/>
      <point x="59" y="263" type="curve" smooth="yes"/>
      <point x="66" y="265"/>
      <point x="90" y="262"/>
      <point x="98" y="263" type="curve" smooth="yes"/>
      <point x="109" y="264"/>
      <point x="100" y="268"/>
      <point x="109" y="265" type="curve"/>
    </contour>
    <contour>
      <point x="127" y="145" type="line"/>
      <point x="138" y="146"/>
      <point x="182" y="142"/>
      <point x="193" y="142" type="curve" smooth="yes"/>
      <point x="199" y="142"/>
      <point x="291" y="152"/>
      <point x="304" y="146" type="curve" smooth="yes"/>
      <point x="311" y="143"/>
      <point x="319" y="150"/>
      <point x="326" y="151" type="curve"/>
      <point x="333" y="145"/>
      <point x="339" y="168"/>
      <point x="337" y="171" type="curve"/>
      <point x="334" y="179"/>
      <point x="331" y="188"/>
      <point x="323" y="192" type="curve"/>
      <point x="308" y="194"/>
      <point x="293" y="191"/>
      <point x="277" y="192" type="curve"/>
      <point x="218" y="191" type="line" smooth="yes"/>
      <point x="211" y="191"/>
      <point x="204" y="188"/>
      <point x="197" y="188" type="curve" smooth="yes"/>
      <point x="194" y="188"/>
      <point x="184" y="198"/>
      <point x="137" y="191" type="curve" smooth="yes"/>
      <point x="124" y="189"/>
      <point x="61" y="193"/>
      <point x="53" y="192" type="curve"/>
      <point x="47" y="191"/>
      <point x="41" y="190"/>
      <point x="35" y="190" type="curve"/>
      <point x="28" y="184"/>
      <point x="25" y="174"/>
      <point x="24" y="163" type="curve" smooth="yes"/>
      <point x="23" y="152"/>
      <point x="24" y="161"/>
      <point x="27" y="150" type="curve"/>
      <point x="34" y="145"/>
      <point x="37" y="135"/>
      <point x="53" y="140" type="curve" smooth="yes"/>
      <point x="60" y="142"/>
      <point x="68" y="143"/>
      <point x="76" y="144" type="curve" smooth="yes"/>
      <point x="87" y="145"/>
      <point x="100" y="145"/>
      <point x="109" y="142" type="curve"/>
    </contour>
  </outline>
</glyph>
<glyph name="question" format="1">
  <advance width="416"/>
  <unicode hex="003F"/>
  <outline>
    <contour>
      <point x="219" y="454" type="line"/>
      <point x="211" y="455"/>
      <point x="208" y="451"/>
      <point x="200" y="452" type="curve"/>
      <point x="188" y="447"/>
      <point x="173" y="447"/>
      <point x="160" y="443" type="curve"/>
      <point x="148" y="437"/>
      <point x="140" y="428"/>
      <point x="126" y="426" type="curve"/>
      <point x="118" y="413"/>
      <point x="106" y="404"/>
      <point x="96" y="394" type="curve"/>
      <point x="91" y="385"/>
      <point x="85" y="377"/>
      <point x="80" y="369" type="curve"/>
      <point x="79" y="351"/>
      <point x="76" y="335"/>
      <point x="69" y="323" type="curve"/>
      <point x="69" y="308"/>
      <point x="65" y="298"/>
      <point x="64" y="285" type="curve"/>
      <point x="68" y="276"/>
      <point x="68" y="263"/>
      <point x="70" y="252" type="curve"/>
      <point x="75" y="246"/>
      <point x="81" y="242"/>
      <point x="81" y="233" type="curve"/>
      <point x="91" y="226"/>
      <point x="97" y="215"/>
      <point x="103" y="205" type="curve"/>
      <point x="110" y="199"/>
      <point x="119" y="194"/>
      <point x="124" y="186" type="curve"/>
      <point x="137" y="181"/>
      <point x="147" y="173"/>
      <point x="157" y="165" type="curve"/>
      <point x="167" y="164"/>
      <point x="176" y="161"/>
      <point x="189" y="162" type="curve"/>
      <point x="194" y="164"/>
      <point x="253" y="169"/>
      <point x="271" y="167" type="curve"/>
      <point x="279" y="170"/>
      <point x="284" y="176"/>
      <point x="294" y="176" type="curve"/>
      <point x="302" y="181"/>
      <point x="316" y="191"/>
      <point x="316" y="191" type="curve" smooth="yes"/>
      <point x="316" y="191"/>
      <point x="319" y="192"/>
      <point x="323" y="195" type="curve"/>
      <point x="329" y="204"/>
      <point x="352" y="222"/>
      <point x="346" y="225" type="curve"/>
      <point x="347" y="238"/>
      <point x="351" y="246"/>
      <point x="356" y="254" type="curve"/>
      <point x="355" y="266"/>
      <point x="363" y="278"/>
      <point x="364" y="290" type="curve"/>
      <point x="364" y="299"/>
      <point x="360" y="307"/>
      <point x="359" y="317" type="curve"/>
      <point x="348" y="330"/>
      <point x="318" y="338"/>
      <point x="308" y="318" type="curve"/>
      <point x="312" y="304"/>
      <point x="312" y="285"/>
      <point x="307" y="273" type="curve"/>
      <point x="298" y="261"/>
      <point x="293" y="246"/>
      <point x="283" y="235" type="curve"/>
      <point x="278" y="234"/>
      <point x="276" y="230"/>
      <point x="272" y="228" type="curve"/>
      <point x="257" y="226"/>
      <point x="245" y="216"/>
      <point x="228" y="214" type="curve"/>
      <point x="219" y="214"/>
      <point x="210" y="217"/>
      <point x="198" y="216" type="curve"/>
      <point x="188" y="221"/>
      <point x="179" y="226"/>
      <point x="167" y="228" type="curve"/>
      <point x="162" y="233"/>
      <point x="157" y="237"/>
      <point x="151" y="240" type="curve"/>
      <point x="147" y="248"/>
      <point x="140" y="254"/>
      <point x="132" y="258" type="curve"/>
      <point x="131" y="267"/>
      <point x="122" y="268"/>
      <point x="121" y="276" type="curve"/>
      <point x="121" y="293"/>
      <point x="114" y="302"/>
      <point x="116" y="321" type="curve"/>
      <point x="115" y="327"/>
      <point x="119" y="332"/>
      <point x="121" y="337" type="curve"/>
      <point x="128" y="352"/>
      <point x="136" y="365"/>
      <point x="143" y="380" type="curve"/>
      <point x="151" y="384"/>
      <point x="155" y="392"/>
      <point x="163" y="396" type="curve"/>
      <point x="172" y="399"/>
      <point x="182" y="401"/>
      <point x="192" y="403" type="curve"/>
      <point x="204" y="401"/>
      <point x="213" y="400"/>
      <point x="226" y="402" type="curve"/>
      <point x="242" y="413"/>
      <point x="266" y="416"/>
      <point x="285" y="424" type="curve"/>
      <point x="293" y="436"/>
      <point x="309" y="440"/>
      <point x="319" y="449" type="curve"/>
      <point x="329" y="460"/>
      <point x="343" y="466"/>
      <point x="349" y="479" type="curve"/>
      <point x="352" y="484"/>
      <point x="353" y="489"/>
      <point x="354" y="495" type="curve"/>
      <point x="363" y="501"/>
      <point x="369" y="511"/>
      <point x="376" y="519" type="curve"/>
      <point x="380" y="535"/>
      <point x="376" y="550"/>
      <point x="376" y="569" type="curve"/>
      <point x="373" y="580"/>
      <point x="369" y="590"/>
      <point x="370" y="604" type="curve"/>
      <point x="367" y="609"/>
      <point x="364" y="613"/>
      <point x="362" y="619" type="curve"/>
      <point x="361" y="633"/>
      <point x="358" y="644"/>
      <point x="354" y="656" type="curve"/>
      <point x="346" y="662"/>
      <point x="344" y="673"/>
      <point x="338" y="681" type="curve"/>
      <point x="333" y="690"/>
      <point x="327" y="698"/>
      <point x="321" y="706" type="curve"/>
      <point x="306" y="714"/>
      <point x="296" y="727"/>
      <point x="280" y="734" type="curve"/>
      <point x="263" y="737"/>
      <point x="248" y="741"/>
      <point x="233" y="744" type="curve"/>
      <point x="215" y="743"/>
      <point x="199" y="745"/>
      <point x="184" y="744" type="curve" smooth="yes"/>
      <point x="169" y="743"/>
      <point x="154" y="736"/>
      <point x="138" y="738" type="curve"/>
      <point x="125" y="729"/>
      <point x="110" y="721"/>
      <point x="100" y="709" type="curve"/>
      <point x="92" y="706"/>
      <point x="84" y="701"/>
      <point x="78" y="695" type="curve"/>
      <point x="74" y="679"/>
      <point x="62" y="671"/>
      <point x="56" y="657" type="curve"/>
      <point x="53" y="640"/>
      <point x="48" y="626"/>
      <point x="42" y="612" type="curve"/>
      <point x="41" y="606"/>
      <point x="45" y="605"/>
      <point x="44" y="599" type="curve"/>
      <point x="40" y="592"/>
      <point x="34" y="587"/>
      <point x="33" y="578" type="curve"/>
      <point x="31" y="569"/>
      <point x="35" y="556"/>
      <point x="37" y="545" type="curve"/>
      <point x="40" y="534"/>
      <point x="42" y="524"/>
      <point x="47" y="517" type="curve"/>
      <point x="59" y="516"/>
      <point x="96" y="527"/>
      <point x="97" y="544" type="curve"/>
      <point x="95" y="554"/>
      <point x="88" y="560"/>
      <point x="85" y="569" type="curve"/>
      <point x="84" y="589"/>
      <point x="82" y="606"/>
      <point x="88" y="623" type="curve"/>
      <point x="91" y="629"/>
      <point x="100" y="630"/>
      <point x="102" y="638" type="curve"/>
      <point x="105" y="641"/>
      <point x="105" y="648"/>
      <point x="107" y="653" type="curve"/>
      <point x="112" y="656"/>
      <point x="115" y="661"/>
      <point x="122" y="662" type="curve"/>
      <point x="125" y="667"/>
      <point x="128" y="673"/>
      <point x="133" y="676" type="curve"/>
      <point x="137" y="679"/>
      <point x="142" y="680"/>
      <point x="146" y="682" type="curve"/>
      <point x="151" y="684"/>
      <point x="153" y="689"/>
      <point x="159" y="690" type="curve"/>
      <point x="170" y="690"/>
      <point x="175" y="695"/>
      <point x="184" y="697" type="curve"/>
      <point x="209" y="698"/>
      <point x="238" y="691"/>
      <point x="261" y="686" type="curve"/>
      <point x="271" y="679"/>
      <point x="278" y="669"/>
      <point x="289" y="665" type="curve"/>
      <point x="293" y="659"/>
      <point x="299" y="657"/>
      <point x="302" y="651" type="curve"/>
      <point x="303" y="643"/>
      <point x="309" y="639"/>
      <point x="308" y="629" type="curve"/>
      <point x="315" y="619"/>
      <point x="323" y="606"/>
      <point x="324" y="589" type="curve"/>
      <point x="326" y="574"/>
      <point x="321" y="557"/>
      <point x="321" y="541" type="curve"/>
      <point x="319" y="536"/>
      <point x="315" y="532"/>
      <point x="315" y="525" type="curve"/>
      <point x="304" y="513"/>
      <point x="295" y="499"/>
      <point x="286" y="485" type="curve"/>
      <point x="275" y="480"/>
      <point x="265" y="473"/>
      <point x="255" y="466" type="curve"/>
    </contour>
    <contour>
      <point x="261" y="55"/>
      <point x="259" y="64"/>
      <point x="260" y="72" type="curve"/>
      <point x="253" y="87"/>
      <point x="245" y="100"/>
      <point x="236" y="112" type="curve"/>
      <point x="213" y="118"/>
      <point x="198" y="105"/>
      <point x="185" y="96" type="curve"/>
      <point x="185" y="86"/>
      <point x="180" y="81"/>
      <point x="179" y="71" type="curve"/>
      <point x="181" y="61"/>
      <point x="185" y="53"/>
      <point x="189" y="44" type="curve"/>
      <point x="208" y="33"/>
      <point x="244" y="33"/>
      <point x="258" y="49" type="curve"/>
    </contour>
  </outline>
</glyph>
